<?xml version="1.0" encoding="utf-8"?>
<!-- Generator: Adobe Illustrator 27.3.1, SVG Export Plug-In . SVG Version: 6.00 Build 0)  -->
<svg version="1.1" xmlns="http://www.w3.org/2000/svg" xmlns:xlink="http://www.w3.org/1999/xlink" x="0px" y="0px"
	 viewBox="0 0 240 82" style="enable-background:new 0 0 240 82;" xml:space="preserve">
<style type="text/css">
	.st0{fill:#323232;}
	.st1{fill:#535353;}
	.st2{fill:#B9B9B9;}
	.st3{fill:#F0F0F0;}
	.st4{fill:#181818;}
	.st5{fill:#787878;}
	.st6{fill:#B4B4B4;}
	.st7{fill:#252525;}
	.st8{fill:#464646;}
	.st9{fill:#AAAAAA;}
	.st10{fill:#DCDCDC;}
	.st11{fill:#828282;}
	.st12{font-family:'SourceSansPro-SemiBold';}
	.st13{font-size:8.5px;}
	.st14{fill:#8C8C8C;}
	.st15{fill:#5A5A5A;}
	.st16{fill:#CCFF00;}
	.st17{fill:#FF0088;}
	.st18{fill:#FF6699;}
	.st19{fill:#3C3C3C;}
	.st20{font-size:12px;}
	.st21{fill:#646464;}
	.st22{fill:#969696;}
	.st23{fill:#C8C8C8;}
	.st24{fill:#505050;}
	.st25{fill:#E6E6E6;}
	.st26{fill:#2D8CEB;}
	.st27{fill:#FFFFFF;}
	.st28{opacity:0;}
</style>
<g id="content__xBB_">
	<g id="background">
		<rect x="0" y="0" class="st0" width="240" height="82"/>
	</g>
	<g id="bottom_bar_stroke">
		<g>
			<rect y="69.019" class="st4" width="240" height="1"/>
		</g>
	</g>
	<g id="logo_bar_x2C__bar__x26__bottom_bar">
		<g>
			<rect x="125" y="17.85" class="st7" width="105" height="6.3"/>
		</g>
		<g>
			<rect y="70" class="st7" width="240" height="12"/>
		</g>
	</g>
	<g id="bottom_bar_text">
		<g>
			<text transform="matrix(1 0 0 1 195.689 78.7061)" class="st11 st12 st13">M O R E  +</text>
		</g>
		<g>
			<text transform="matrix(1 0 0 1 9.3734 78.7061)" class="st11 st12 st13">H E L P</text>
		</g>
	</g>
	<g id="left_help">
	</g>
	<g id="logo__x26__right_help">
		<path class="st16" d="M187.501,15.159h-2.698v11.692h2.698V15.159z M192.298,10.362h-7.495v2.698h7.495V10.362z M192.298,15.159
			H189.6v16.189h2.698V15.159z M160.39,26.851h-17.688v-2.698h14.99V23.11l-14.99-1.82v-6.131h17.688v2.698h-14.99v1.042l14.99,1.82
			V26.851z M212.084,15.159h-17.688v2.698h14.99v1.042l-14.99,1.82v6.131h17.688V15.159z M197.094,23.11l12.291-1.493v2.535h-12.291
			V23.11z M180.661,15.159l-5.55,8.581c-0.167,0.259-0.451,0.413-0.759,0.413h-3.547c-0.308,0-0.592-0.154-0.759-0.413l-5.55-8.581
			h-3.213l6.497,10.046c0.666,1.031,1.797,1.646,3.024,1.646h3.547c1.227,0,2.358-0.615,3.024-1.646l6.497-10.046H180.661z"/>
	</g>
</g>
<g id="buttons__xBB_">
	<g id="bottom_stroke">
		<g>
			<g>
				<path class="st15" d="M111.5,59h-98c-1.93,0-3.5-1.57-3.5-3.5v-15c0-1.93,1.57-3.5,3.5-3.5h98c1.93,0,3.5,1.57,3.5,3.5v15
					C115,57.429,113.43,59,111.5,59z"/>
			</g>
			<g>
				<path class="st15" d="M226.5,59h-98c-1.93,0-3.5-1.57-3.5-3.5v-15c0-1.93,1.57-3.5,3.5-3.5h98c1.93,0,3.5,1.57,3.5,3.5v15
					C230,57.429,228.43,59,226.5,59z"/>
			</g>
		</g>
	</g>
	<g id="bottom_fill">
		<g>
			<path class="st19" d="M13.5,38c-1.378,0-2.5,1.122-2.5,2.5v15c0,1.378,1.122,2.5,2.5,2.5h98c1.378,0,2.5-1.122,2.5-2.5v-15
				c0-1.378-1.122-2.5-2.5-2.5H13.5z"/>
		</g>
		<g>
			<path class="st19" d="M128.5,38c-1.379,0-2.5,1.122-2.5,2.5v15c0,1.378,1.121,2.5,2.5,2.5h98c1.379,0,2.5-1.122,2.5-2.5v-15
				c0-1.378-1.121-2.5-2.5-2.5H128.5z"/>
		</g>
	</g>
	<g id="bottom_label">
		<g>
			<text transform="matrix(1 0 0 1 23.633 52.0625)" class="st10 st12 st20">Check &amp; Repair</text>
		</g>
		<g>
			<text transform="matrix(1 0 0 1 144.5544 52.0625)" class="st10 st12 st20">Save as Svija</text>
		</g>
	</g>
	<g id="top_stroke">
		<g>
			<g>
				<path class="st8" d="M111.5,32h-98c-1.93,0-3.5-1.57-3.5-3.5v-15c0-1.93,1.57-3.5,3.5-3.5h98c1.93,0,3.5,1.57,3.5,3.5v15
					C115,30.429,113.43,32,111.5,32z"/>
			</g>
		</g>
	</g>
	<g id="top_fill">
		<g>
			<path class="st0" d="M13.5,11c-1.378,0-2.5,1.122-2.5,2.5v15c0,1.378,1.122,2.5,2.5,2.5h98c1.378,0,2.5-1.122,2.5-2.5v-15
				c0-1.378-1.122-2.5-2.5-2.5H13.5z"/>
		</g>
	</g>
	<g id="top_label">
		<g>
			<text transform="matrix(1 0 0 1 23.656 24.8624)" class="st22 st12 st20">Animation Tips</text>
		</g>
	</g>
</g>
<g id="mouseover__xBB_">
	<g id="mouseover_3">
	</g>
	<g id="mouseover_2">
	</g>
	<g id="mouseover_1">
	</g>
	<g id="mouseover_0">
		<g id="mov0-02">
			<path class="st26" d="M226.5,59h-98c-1.93,0-3.5-1.57-3.5-3.5v-15c0-1.93,1.57-3.5,3.5-3.5h98c1.93,0,3.5,1.57,3.5,3.5v15
				C230,57.429,228.43,59,226.5,59z"/>
			<path class="st0" d="M128.5,38c-1.379,0-2.5,1.122-2.5,2.5v15c0,1.378,1.121,2.5,2.5,2.5h98c1.379,0,2.5-1.122,2.5-2.5v-15
				c0-1.378-1.121-2.5-2.5-2.5H128.5z"/>
			<g>
				<text transform="matrix(1 0 0 1 144.5544 52.0625)" class="st10 st12 st20">Save as Svija</text>
			</g>
		</g>
		<g id="mov0-01">
			<path class="st26" d="M111.5,59h-98c-1.93,0-3.5-1.57-3.5-3.5v-15c0-1.93,1.57-3.5,3.5-3.5h98c1.93,0,3.5,1.57,3.5,3.5v15
				C115,57.429,113.43,59,111.5,59z"/>
			<path class="st0" d="M13.5,38c-1.378,0-2.5,1.122-2.5,2.5v15c0,1.378,1.122,2.5,2.5,2.5h98c1.378,0,2.5-1.122,2.5-2.5v-15
				c0-1.378-1.122-2.5-2.5-2.5H13.5z"/>
			<g>
				<text transform="matrix(1 0 0 1 23.633 52.0625)" class="st10 st12 st20">Check &amp; Repair</text>
			</g>
		</g>
		<g id="mov0-00">
			<path class="st26" d="M111.5,32h-98c-1.93,0-3.5-1.57-3.5-3.5v-15c0-1.93,1.57-3.5,3.5-3.5h98c1.93,0,3.5,1.57,3.5,3.5v15
				C115,30.429,113.43,32,111.5,32z"/>
			<path class="st0" d="M13.5,11c-1.378,0-2.5,1.122-2.5,2.5v15c0,1.378,1.122,2.5,2.5,2.5h98c1.378,0,2.5-1.122,2.5-2.5v-15
				c0-1.378-1.122-2.5-2.5-2.5H13.5z"/>
			<g>
				<text transform="matrix(1 0 0 1 23.656 24.8624)" class="st10 st12 st20">Animation Tips</text>
			</g>
		</g>
	</g>
</g>
<g id="mousedowns__xBB_">
	<g id="mousedown_3">
	</g>
	<g id="mousedown_2">
	</g>
	<g id="mousedown_1">
	</g>
	<g id="mousedown_0">
		<g id="mod0-02">
			<path class="st23" d="M226.5,59h-98c-1.93,0-3.5-1.57-3.5-3.5v-15c0-1.93,1.57-3.5,3.5-3.5h98c1.93,0,3.5,1.57,3.5,3.5v15
				C230,57.429,228.43,59,226.5,59z"/>
			<path class="st0" d="M128.5,38c-1.379,0-2.5,1.122-2.5,2.5v15c0,1.378,1.121,2.5,2.5,2.5h98c1.379,0,2.5-1.122,2.5-2.5v-15
				c0-1.378-1.121-2.5-2.5-2.5H128.5z"/>
			<g>
				<text transform="matrix(1 0 0 1 144.5544 52.0625)" class="st27 st12 st20">Save as Svija</text>
			</g>
		</g>
		<g id="mod0-01">
			<path class="st23" d="M111.5,59h-98c-1.93,0-3.5-1.57-3.5-3.5v-15c0-1.93,1.57-3.5,3.5-3.5h98c1.93,0,3.5,1.57,3.5,3.5v15
				C115,57.429,113.43,59,111.5,59z"/>
			<path class="st0" d="M13.5,38c-1.378,0-2.5,1.122-2.5,2.5v15c0,1.378,1.122,2.5,2.5,2.5h98c1.378,0,2.5-1.122,2.5-2.5v-15
				c0-1.378-1.122-2.5-2.5-2.5H13.5z"/>
			<g>
				<text transform="matrix(1 0 0 1 23.633 52.0625)" class="st27 st12 st20">Check &amp; Repair</text>
			</g>
		</g>
		<g id="mod0-00">
			<path class="st23" d="M111.5,32h-98c-1.93,0-3.5-1.57-3.5-3.5v-15c0-1.93,1.57-3.5,3.5-3.5h98c1.93,0,3.5,1.57,3.5,3.5v15
				C115,30.429,113.43,32,111.5,32z"/>
			<path class="st0" d="M13.5,11c-1.378,0-2.5,1.122-2.5,2.5v15c0,1.378,1.122,2.5,2.5,2.5h98c1.378,0,2.5-1.122,2.5-2.5v-15
				c0-1.378-1.122-2.5-2.5-2.5H13.5z"/>
			<g>
				<text transform="matrix(1 0 0 1 23.656 24.8624)" class="st27 st12 st20">Animation Tips</text>
			</g>
		</g>
	</g>
</g>
<g id="ai_links__xBB_">
	<g id="history.back_x28__x29__x3B_">
	</g>
	<g id="bottom_bar">
		<a xlink:href="javascript:openLink(&apos;more.html&apos;);" >
			<rect x="150" y="69" class="st28" width="90" height="13"/>
		</a>
		<a xlink:href="javascript:openLink(&apos;lessHelp.html&apos;);" >
			<rect x="0" y="69" class="st28" width="43.2" height="13"/>
		</a>
	</g>
</g>
<g id="listener_links__xBB_">
	<g id="links3">
	</g>
	<g id="links2">
	</g>
	<g id="links1">
	</g>
	<g id="links0">
		<rect id="link0-02" x="122.099" y="34.5" class="st28" width="111" height="27.5"/>
		<rect id="link0-01" x="7" y="34.5" class="st28" width="111" height="27.5"/>
		<rect id="link0-00" x="7" y="7" class="st28" width="111" height="27.5"/>
	</g>
</g>
</svg>
