<?xml version="1.0" encoding="utf-8"?>
<!-- Generator: Adobe Illustrator 27.3.1, SVG Export Plug-In . SVG Version: 6.00 Build 0)  -->
<svg version="1.1" xmlns="http://www.w3.org/2000/svg" xmlns:xlink="http://www.w3.org/1999/xlink" x="0px" y="0px"
	 viewBox="0 0 240 339" style="enable-background:new 0 0 240 339;" xml:space="preserve">
<style type="text/css">
	.st0{fill:#323232;}
	.st1{fill:#535353;}
	.st2{fill:#B9B9B9;}
	.st3{fill:#F0F0F0;}
	.st4{fill:#181818;}
	.st5{fill:#787878;}
	.st6{fill:#B4B4B4;}
	.st7{fill:#252525;}
	.st8{fill:#464646;}
	.st9{fill:#AAAAAA;}
	.st10{fill:#DCDCDC;}
	.st11{fill:#828282;}
	.st12{font-family:'SourceSansPro-SemiBold';}
	.st13{font-size:8.5px;}
	.st14{fill:#8C8C8C;}
	.st15{fill:#5A5A5A;}
	.st16{fill:#CCFF00;}
	.st17{fill:#FF0088;}
	.st18{fill:#FF6699;}
	.st19{fill:none;}
	.st20{fill:#969696;}
	.st21{font-family:'SourceSansPro-Regular';}
	.st22{font-size:12px;}
	.st23{fill:#3C3C3C;}
	.st24{fill:#646464;}
	.st25{fill:#C8C8C8;}
	.st26{fill:#505050;}
	.st27{fill:#E6E6E6;}
	.st28{fill:#2D8CEB;}
	.st29{opacity:0;}
</style>
<g id="content__xBB_">
	<g id="background">
		<rect class="st0" width="240" height="339"/>
	</g>
	<g id="bottom_bar_stroke">
		<g>
			<rect x="0.096" y="326" class="st4" width="239.904" height="1"/>
		</g>
	</g>
	<g id="logo_bar_x2C__bar__x26__bottom_bar">
		<g>
			<rect x="0" y="327" transform="matrix(-1 -4.495927e-11 4.495927e-11 -1 240 666)" class="st7" width="240" height="12"/>
		</g>
	</g>
	<g id="bottom_bar_text">
		<g>
			<text transform="matrix(1 0 0 1 24.3986 335.7097)" class="st11 st12 st13">R E T U R N</text>
		</g>
		<path class="st11" d="M10.034,333l2.692-2.691l0.51,0.51L11.053,333l2.183,2.182l-0.51,0.51L10.034,333z M17.266,335.692
			l0.51-0.51L15.594,333l2.182-2.182l-0.51-0.51L14.575,333L17.266,335.692z"/>
	</g>
	<g id="left_help">
	</g>
	<g id="logo__x26__right_help">
		<g>
			<rect x="10" y="118.646" class="st7" width="220" height="1"/>
		</g>
		<g>
			<rect x="96.527" y="8.87" class="st19" width="124.436" height="98.465"/>
			<text transform="matrix(1 0 0 1 96.5267 18.8301)"><tspan x="0" y="0" class="st20 st21 st22">save the </tspan><tspan x="43.969" y="0" class="st10 st21 st22">Illustrator file </tspan><tspan x="0" y="15" class="st20 st21 st22">and save an </tspan><tspan x="61.718" y="15" class="st10 st21 st22">SVG version</tspan><tspan x="120.878" y="15" class="st20 st21 st22">  </tspan><tspan x="0" y="30" class="st20 st21 st22">in sync/Svija/</tspan><tspan x="66.96" y="30" class="st10 st21 st22">SVG Files</tspan><tspan x="0" y="50" class="st20 st21 st22">save </tspan><tspan x="25.032" y="50" class="st10 st21 st22">all open files</tspan><tspan x="0" y="70" class="st20 st21 st22">save including artwork </tspan><tspan x="0" y="85" class="st10 st21 st22">outside the artboard</tspan></text>
		</g>
		<g>
			<rect x="96.527" y="132.169" class="st19" width="135.436" height="183.464"/>
			<text transform="matrix(1 0 0 1 96.5267 142.1292)"><tspan x="0" y="0" class="st20 st21 st22">check for </tspan><tspan x="48.337" y="0" class="st10 st21 st22">common issues:</tspan><tspan x="0" y="20" class="st20 st21 st22">• </tspan><tspan x="6.048" y="20" class="st10 st21 st22">artboard</tspan><tspan x="50.327" y="20" class="st20 st21 st22"> names &amp; sizes </tspan><tspan x="0" y="35" class="st20 st21 st22">• </tspan><tspan x="6.048" y="35" class="st10 st21 st22">images</tspan><tspan x="42.024" y="35" class="st20 st21 st22"> not in the nearest </tspan><tspan x="0" y="50" class="st20 st21 st22">  &quot;Links&quot; folder </tspan><tspan x="0" y="65" class="st20 st21 st22">• </tspan><tspan x="6.048" y="65" class="st10 st21 st22">unsupported techniques</tspan><tspan x="0" y="85" class="st10 st21 st22">create a group</tspan><tspan x="72.396" y="85" class="st20 st21 st22"> — useful if </tspan><tspan x="0" y="100" class="st20 st21 st22">only one object is selected</tspan><tspan x="0" y="120" class="st20 st21 st22">copy any </tspan><tspan x="47.255" y="120" class="st10 st21 st22">unlocked layers</tspan><tspan x="126.189" y="120" class="st20 st21 st22"> </tspan><tspan x="0" y="135" class="st20 st21 st22">to all other open files</tspan><tspan x="0" y="155" class="st20 st21 st22">import text styles from a </tspan><tspan x="0" y="170" class="st10 st21 st22">separate Illustrator file</tspan></text>
		</g>
		<g>
			<text transform="matrix(1 0 0 1 61.7821 18.8355)"><tspan x="0" y="0" class="st10 st12 st22">Save </tspan><tspan x="24.756" y="15" class="st10 st12 st22"> </tspan><tspan x="-15.6" y="50" class="st10 st12 st22">Save All</tspan><tspan x="-52.631" y="70" class="st10 st12 st22">Save w/Canvas</tspan></text>
		</g>
		<g>
			<text transform="matrix(1 0 0 1 8.8036 142.433)"><tspan x="0" y="0" class="st10 st12 st22">Check &amp; Repair</tspan><tspan x="77.734" y="20" class="st10 st12 st22"> </tspan><tspan x="77.734" y="35" class="st10 st12 st22"> </tspan><tspan x="77.734" y="50" class="st10 st12 st22"> </tspan><tspan x="9.216" y="85" class="st10 st12 st22">Create Group </tspan><tspan x="17.207" y="120" class="st10 st12 st22">Dup. Layers </tspan><tspan x="8.352" y="155" class="st10 st12 st22">Import Styles</tspan></text>
		</g>
	</g>
</g>
<g id="buttons__xBB_">
	<g id="bottom_stroke">
	</g>
	<g id="bottom_fill">
	</g>
	<g id="bottom_label">
	</g>
	<g id="top_stroke">
	</g>
	<g id="top_fill">
	</g>
	<g id="top_label">
	</g>
</g>
<g id="mouseover__xBB_">
	<g id="mouseover_3">
	</g>
	<g id="mouseover_2">
	</g>
	<g id="mouseover_1">
	</g>
	<g id="mouseover_0">
	</g>
</g>
<g id="mousedowns__xBB_">
	<g id="mousedown_3">
	</g>
	<g id="mousedown_2">
	</g>
	<g id="mousedown_1">
	</g>
	<g id="mousedown_0">
	</g>
</g>
<g id="ai_links__xBB_">
	<g id="history.back_x28__x29__x3B_">
		<a xlink:href="javascript:openLink(&apos;more.html&apos;);" >
			<rect x="0" y="0" class="st29" width="240" height="339"/>
		</a>
	</g>
	<g id="bottom_bar">
	</g>
</g>
<g id="listener_links__xBB_">
	<g id="links3">
	</g>
	<g id="links2">
	</g>
	<g id="links1">
	</g>
	<g id="links0">
	</g>
</g>
</svg>
