<?xml version="1.0" encoding="UTF-8"?>
<svg xmlns="http://www.w3.org/2000/svg" xmlns:xlink="http://www.w3.org/1999/xlink" viewBox="0 0 240 82">
  <defs>
    <style>
      .cls-1 {
        fill: #f0f0f0;
      }

      .cls-1, .cls-2, .cls-3, .cls-4 {
        font-size: 12px;
      }

      .cls-1, .cls-2, .cls-3, .cls-4, .cls-5 {
        font-family: SourceSansPro-SemiBold, 'Source Sans Pro';
        font-weight: 600;
      }

      .cls-2 {
        fill: #fff;
      }

      .cls-6 {
        fill: #323232;
      }

      .cls-7 {
        fill: #cf0;
      }

      .cls-8 {
        fill: #dcdcdc;
      }

      .cls-9 {
        fill: #464646;
      }

      .cls-10 {
        fill: #535353;
      }

      .cls-11 {
        fill: #646464;
      }

      .cls-12 {
        fill: #2d8ceb;
      }

      .cls-13 {
        fill: #787878;
      }

      .cls-14 {
        fill: #505050;
      }

      .cls-3 {
        fill: #aaa;
      }

      .cls-4 {
        fill: #c8c8c8;
      }

      .cls-5 {
        fill: #8c8c8c;
        font-size: 8.5px;
      }

      .cls-15 {
        opacity: 0;
      }
    </style>
  </defs>
  <g id="content_" data-name="content »">
    <g id="background">
      <rect class="cls-10" x="0" y="0" width="240" height="82"/>
    </g>
    <g id="bottom_bar_stroke" data-name="bottom bar stroke">
      <rect class="cls-6" y="69.019" width="240" height="1"/>
    </g>
    <g id="logo_bar_bar_bottom_bar" data-name="logo bar, bar &amp;amp; bottom bar">
      <rect class="cls-9" x="125" y="17.85" width="105" height="6.3"/>
      <rect class="cls-9" y="70" width="240" height="12"/>
    </g>
    <g id="bottom_bar_text" data-name="bottom bar text">
      <text class="cls-5" transform="translate(195.689 78.706)"><tspan x="0" y="0">M O R E  +</tspan></text>
      <text class="cls-5" transform="translate(9.373 78.706)"><tspan x="0" y="0">H E L P</tspan></text>
    </g>
    <g id="logo_right_help" data-name="logo &amp;amp; right help">
      <path class="cls-7" d="M187.501,15.159h-2.698v11.692h2.698V15.159Zm4.797-4.797h-7.495v2.698h7.495v-2.698Zm0,4.797h-2.698V31.347h2.698V15.159Zm-31.907,11.692h-17.688v-2.698h14.99v-1.043l-14.99-1.82v-6.131h17.688v2.698h-14.99v1.042l14.99,1.82v6.131Zm51.693-11.692h-17.688v2.698h14.99v1.042l-14.99,1.82v6.131h17.688V15.159Zm-14.99,7.951l12.291-1.493v2.535h-12.291v-1.043Zm-16.433-7.951l-5.55,8.581c-.167,.259-.451,.413-.759,.413h-3.547c-.308,0-.592-.154-.759-.413l-5.55-8.581h-3.213l6.497,10.046c.666,1.031,1.797,1.646,3.024,1.646h3.547c1.227,0,2.358-.615,3.024-1.646l6.497-10.046h-3.213Z"/>
    </g>
  </g>
  <g id="buttons_" data-name="buttons »">
    <g id="bottom_stroke" data-name="bottom stroke">
      <g>
        <path class="cls-13" d="M111.5,59H13.5c-1.93,0-3.5-1.57-3.5-3.5v-15c0-1.93,1.57-3.5,3.5-3.5H111.5c1.93,0,3.5,1.57,3.5,3.5v15c0,1.93-1.57,3.5-3.5,3.5Z"/>
        <path class="cls-13" d="M226.5,59h-98c-1.93,0-3.5-1.57-3.5-3.5v-15c0-1.93,1.57-3.5,3.5-3.5h98c1.93,0,3.5,1.57,3.5,3.5v15c0,1.93-1.57,3.5-3.5,3.5Z"/>
      </g>
    </g>
    <g id="bottom_fill" data-name="bottom fill">
      <rect class="cls-9" x="11" y="38" width="103" height="20" rx="2.5" ry="2.5"/>
      <rect class="cls-9" x="126" y="38" width="103" height="20" rx="2.5" ry="2.5"/>
    </g>
    <g id="bottom_label" data-name="bottom label">
      <text class="cls-4" transform="translate(23.633 52.063)"><tspan x="0" y="0">Check &amp; Repair</tspan></text>
      <text class="cls-4" transform="translate(144.554 52.062)"><tspan x="0" y="0">Save as Svija</tspan></text>
    </g>
    <g id="top_stroke" data-name="top stroke">
      <rect class="cls-11" x="10" y="10" width="105" height="22" rx="3.5" ry="3.5"/>
    </g>
    <g id="top_fill" data-name="top fill">
      <rect class="cls-14" x="11" y="11" width="103" height="20" rx="2.5" ry="2.5"/>
    </g>
    <g id="top_label" data-name="top label">
      <text class="cls-3" transform="translate(23.656 24.862)"><tspan x="0" y="0">Animation Tips</tspan></text>
    </g>
  </g>
  <g id="mouseover_" data-name="mouseover »">
    <g id="mouseover_1" data-name="mouseover 1">
      <g id="mov1-02">
        <path class="cls-12" d="M226.5,59h-98c-1.93,0-3.5-1.57-3.5-3.5v-15c0-1.93,1.57-3.5,3.5-3.5h98c1.93,0,3.5,1.57,3.5,3.5v15c0,1.93-1.57,3.5-3.5,3.5Z"/>
        <rect class="cls-9" x="126" y="38" width="103" height="20" rx="2.5" ry="2.5"/>
        <text class="cls-1" transform="translate(144.554 52.062)"><tspan x="0" y="0">Save as Svija</tspan></text>
      </g>
      <g id="mov1-01">
        <path class="cls-12" d="M111.5,59H13.5c-1.93,0-3.5-1.57-3.5-3.5v-15c0-1.93,1.57-3.5,3.5-3.5H111.5c1.93,0,3.5,1.57,3.5,3.5v15c0,1.93-1.57,3.5-3.5,3.5Z"/>
        <rect class="cls-9" x="11" y="38" width="103" height="20" rx="2.5" ry="2.5"/>
        <text class="cls-1" transform="translate(23.633 52.063)"><tspan x="0" y="0">Check &amp; Repair</tspan></text>
      </g>
      <g id="mov1-00">
        <rect class="cls-12" x="10" y="10" width="105" height="22" rx="3.5" ry="3.5"/>
        <rect class="cls-9" x="11" y="11" width="103" height="20" rx="2.5" ry="2.5"/>
        <text class="cls-1" transform="translate(23.656 24.862)"><tspan x="0" y="0">Animation Tips</tspan></text>
      </g>
    </g>
  </g>
  <g id="mousedowns_" data-name="mousedowns »">
    <g id="mousedown_1" data-name="mousedown 1">
      <g id="mod1-02">
        <path class="cls-8" d="M226.5,59h-98c-1.93,0-3.5-1.57-3.5-3.5v-15c0-1.93,1.57-3.5,3.5-3.5h98c1.93,0,3.5,1.57,3.5,3.5v15c0,1.93-1.57,3.5-3.5,3.5Z"/>
        <rect class="cls-9" x="126" y="38" width="103" height="20" rx="2.5" ry="2.5"/>
        <text class="cls-2" transform="translate(144.554 52.062)"><tspan x="0" y="0">Save as Svija</tspan></text>
      </g>
      <g id="mod1-01">
        <path class="cls-8" d="M111.5,59H13.5c-1.93,0-3.5-1.57-3.5-3.5v-15c0-1.93,1.57-3.5,3.5-3.5H111.5c1.93,0,3.5,1.57,3.5,3.5v15c0,1.93-1.57,3.5-3.5,3.5Z"/>
        <rect class="cls-9" x="11" y="38" width="103" height="20" rx="2.5" ry="2.5"/>
        <text class="cls-2" transform="translate(23.633 52.063)"><tspan x="0" y="0">Check &amp; Repair</tspan></text>
      </g>
      <g id="mod1-00">
        <rect class="cls-8" x="10" y="10" width="105" height="22" rx="3.5" ry="3.5"/>
        <rect class="cls-9" x="11" y="11" width="103" height="20" rx="2.5" ry="2.5"/>
        <text class="cls-2" transform="translate(23.656 24.862)"><tspan x="0" y="0">Animation Tips</tspan></text>
      </g>
    </g>
  </g>
  <g id="ai_links_" data-name="ai links »">
    <g id="bottom_bar" data-name="bottom bar">
      <a xlink:href="javascript:openLink(&apos;more.html&apos;);">
        <rect class="cls-15" x="150" y="69" width="90" height="13"/>
      </a>
      <a xlink:href="javascript:openLink(&apos;lessHelp.html&apos;);">
        <rect class="cls-15" x="0" y="69" width="43.2" height="13"/>
      </a>
    </g>
  </g>
  <g id="listener_links_" data-name="listener links »">
    <g id="links1">
      <rect id="link1-02" class="cls-15" x="122" y="34.5" width="111" height="27.5"/>
      <rect id="link1-01" class="cls-15" x="7" y="34.5" width="111" height="27.5"/>
      <rect id="link1-00" class="cls-15" x="7" y="7" width="111" height="27.5"/>
    </g>
  </g>
</svg>