<?xml version="1.0" encoding="UTF-8"?>
<svg xmlns="http://www.w3.org/2000/svg" xmlns:xlink="http://www.w3.org/1999/xlink" viewBox="0 0 240 339">
  <defs>
    <style>
      .cls-1 {
        fill: #f0f0f0;
      }

      .cls-2 {
        fill: #b4b4b4;
      }

      .cls-3 {
        fill: #dcdcdc;
      }

      .cls-4, .cls-5, .cls-6 {
        fill: #5a5a5a;
      }

      .cls-7 {
        fill: #787878;
      }

      .cls-5, .cls-8 {
        font-size: 12px;
      }

      .cls-5, .cls-6 {
        font-family: SourceSansPro-SemiBold, 'Source Sans Pro';
        font-weight: 600;
      }

      .cls-8 {
        font-family: SourceSansPro-Regular, 'Source Sans Pro';
      }

      .cls-6 {
        font-size: 8.5px;
      }

      .cls-9 {
        opacity: 0;
      }
    </style>
  </defs>
  <g id="content_" data-name="content »">
    <g id="background">
      <rect class="cls-1" width="240" height="339"/>
    </g>
    <g id="bottom_bar_stroke" data-name="bottom bar stroke">
      <rect class="cls-2" x="0" y="326" width="240" height="1"/>
    </g>
    <g id="logo_bar_bar_bottom_bar" data-name="logo bar, bar &amp;amp; bottom bar">
      <rect class="cls-3" x="0" y="327" width="240" height="12" transform="translate(240 666) rotate(-180)"/>
    </g>
    <g id="bottom_bar_text" data-name="bottom bar text">
      <text class="cls-6" transform="translate(24.399 335.71)"><tspan x="0" y="0">R E T U R N</tspan></text>
      <path class="cls-4" d="M10.034,333l2.692-2.691,.51,.51-2.183,2.182,2.183,2.182-.51,.51-2.692-2.692Zm7.232,2.692l.51-.51-2.182-2.182,2.182-2.182-.51-.51-2.691,2.691,2.691,2.692Z"/>
    </g>
    <g id="logo_right_help" data-name="logo &amp;amp; right help">
      <rect class="cls-3" x="10" y="118.646" width="220" height="1"/>
      <g>
        <path class="cls-7" d="M99.034,18.974c-.416,0-.812-.076-1.188-.228-.376-.152-.704-.344-.984-.576l.492-.66c.256,.208,.518,.376,.786,.504,.268,.128,.577,.192,.93,.192,.384,0,.672-.088,.864-.265,.191-.176,.288-.392,.288-.647,0-.152-.04-.284-.12-.396-.08-.111-.183-.21-.307-.294s-.266-.157-.426-.222c-.16-.063-.319-.128-.479-.192-.208-.071-.416-.153-.624-.246-.208-.092-.395-.203-.559-.336-.164-.132-.298-.285-.401-.462-.104-.176-.156-.388-.156-.636,0-.231,.046-.45,.138-.654s.225-.38,.396-.527c.172-.148,.382-.265,.63-.349s.528-.126,.84-.126c.368,0,.706,.064,1.014,.192,.309,.128,.574,.284,.799,.468l-.469,.624c-.2-.151-.407-.275-.624-.372-.216-.096-.452-.144-.708-.144-.368,0-.638,.084-.81,.252s-.258,.364-.258,.588c0,.136,.036,.254,.107,.354,.072,.101,.168,.188,.288,.265s.258,.144,.414,.204c.156,.06,.318,.122,.486,.186,.208,.08,.418,.164,.63,.252s.402,.198,.57,.33,.306,.294,.414,.486c.107,.191,.161,.424,.161,.695,0,.24-.046,.465-.138,.673s-.228,.392-.408,.552c-.18,.16-.403,.286-.672,.378-.268,.092-.574,.138-.918,.138Z"/>
        <path class="cls-7" d="M103.883,18.974c-.488,0-.895-.144-1.218-.432-.324-.288-.486-.696-.486-1.225,0-.64,.284-1.13,.852-1.47,.568-.34,1.477-.578,2.725-.714,0-.184-.019-.364-.054-.54-.036-.176-.099-.332-.187-.468s-.21-.246-.366-.33c-.155-.084-.354-.126-.594-.126-.336,0-.652,.064-.948,.192s-.56,.271-.792,.432l-.384-.685c.271-.176,.604-.346,.996-.51,.392-.164,.824-.246,1.296-.246,.712,0,1.228,.219,1.548,.654,.32,.437,.48,1.019,.48,1.746v3.576h-.816l-.084-.696h-.036c-.28,.232-.58,.43-.899,.594-.32,.164-.664,.246-1.032,.246Zm.288-.792c.279,0,.544-.065,.792-.198,.248-.132,.512-.325,.792-.582v-1.619c-.488,.063-.898,.14-1.23,.228s-.6,.192-.804,.312c-.204,.119-.353,.258-.444,.413-.092,.156-.138,.326-.138,.511,0,.336,.1,.576,.3,.72s.444,.216,.732,.216Z"/>
        <path class="cls-7" d="M109.847,18.83l-2.101-5.832h1.021l1.104,3.312c.088,.288,.179,.576,.271,.864s.182,.572,.27,.852h.049c.088-.279,.176-.563,.264-.852l.264-.864,1.104-3.312h.972l-2.063,5.832h-1.152Z"/>
        <path class="cls-7" d="M116.554,18.974c-.392,0-.758-.07-1.098-.21s-.636-.34-.888-.6-.45-.578-.595-.954c-.144-.376-.216-.804-.216-1.284s.074-.91,.223-1.29c.147-.38,.344-.702,.588-.966,.243-.264,.521-.466,.834-.606,.312-.14,.636-.21,.972-.21,.368,0,.698,.064,.99,.192s.536,.312,.731,.552c.196,.24,.347,.528,.45,.864,.104,.336,.156,.712,.156,1.128,0,.104-.002,.206-.006,.306-.004,.101-.015,.187-.03,.259h-3.936c.039,.624,.233,1.117,.582,1.481,.348,.364,.802,.546,1.361,.546,.28,0,.538-.042,.774-.126,.235-.084,.462-.193,.678-.33l.348,.648c-.256,.16-.54,.3-.852,.42-.312,.12-.668,.18-1.068,.18Zm-1.836-3.527h3.12c0-.593-.126-1.042-.378-1.351-.252-.308-.605-.462-1.062-.462-.209,0-.406,.04-.595,.12-.188,.08-.357,.198-.51,.354-.152,.156-.278,.347-.378,.57-.1,.225-.166,.48-.198,.769Z"/>
        <path class="cls-7" d="M124.379,18.974c-.312,0-.574-.048-.786-.144-.212-.097-.384-.229-.517-.396-.132-.168-.226-.372-.281-.611-.057-.24-.084-.505-.084-.792v-3.229h-.864v-.744l.912-.06,.12-1.632h.828v1.632h1.571v.804h-1.571v3.24c0,.359,.065,.638,.197,.834s.366,.294,.702,.294c.104,0,.216-.016,.336-.048s.229-.068,.324-.108l.192,.744c-.16,.056-.335,.106-.522,.15-.188,.044-.374,.065-.558,.065Z"/>
        <path class="cls-7" d="M126.599,18.83V10.286h.983v2.328l-.036,1.199c.28-.264,.572-.489,.876-.678,.305-.188,.66-.282,1.068-.282,.616,0,1.066,.192,1.35,.576,.284,.384,.427,.952,.427,1.704v3.696h-.984v-3.564c0-.552-.088-.949-.264-1.193-.177-.244-.456-.366-.84-.366-.305,0-.572,.076-.805,.228-.231,.152-.496,.376-.792,.672v4.225h-.983Z"/>
        <path class="cls-7" d="M135.49,18.974c-.392,0-.758-.07-1.098-.21s-.636-.34-.888-.6-.45-.578-.595-.954c-.144-.376-.216-.804-.216-1.284s.074-.91,.223-1.29c.147-.38,.344-.702,.588-.966,.243-.264,.521-.466,.834-.606,.312-.14,.636-.21,.972-.21,.368,0,.698,.064,.99,.192s.536,.312,.731,.552c.196,.24,.347,.528,.45,.864,.104,.336,.156,.712,.156,1.128,0,.104-.002,.206-.006,.306-.004,.101-.015,.187-.03,.259h-3.936c.039,.624,.233,1.117,.582,1.481,.348,.364,.802,.546,1.361,.546,.28,0,.538-.042,.774-.126,.235-.084,.462-.193,.678-.33l.348,.648c-.256,.16-.54,.3-.852,.42-.312,.12-.668,.18-1.068,.18Zm-1.836-3.527h3.12c0-.593-.126-1.042-.378-1.351-.252-.308-.605-.462-1.062-.462-.209,0-.406,.04-.595,.12-.188,.08-.357,.198-.51,.354-.152,.156-.278,.347-.378,.57-.1,.225-.166,.48-.198,.769Z"/>
        <path class="cls-4" d="M141.575,18.83v-7.872h.996v7.872h-.996Z"/>
        <path class="cls-4" d="M145.68,18.974c-.376,0-.645-.112-.805-.336s-.239-.552-.239-.983v-7.368h.983v7.439c0,.16,.028,.272,.084,.336,.056,.064,.12,.097,.192,.097h.09c.028,0,.07-.008,.126-.024l.132,.744c-.063,.032-.14,.056-.228,.072-.089,.016-.2,.023-.336,.023Z"/>
        <path class="cls-4" d="M148.739,18.974c-.376,0-.645-.112-.805-.336s-.239-.552-.239-.983v-7.368h.983v7.439c0,.16,.028,.272,.084,.336,.056,.064,.12,.097,.192,.097h.09c.028,0,.07-.008,.126-.024l.132,.744c-.063,.032-.14,.056-.228,.072-.089,.016-.2,.023-.336,.023Z"/>
        <path class="cls-4" d="M152.459,18.974c-.624,0-1.078-.191-1.362-.576-.284-.384-.426-.951-.426-1.704v-3.695h.996v3.563c0,.553,.085,.95,.258,1.194,.172,.244,.449,.366,.834,.366,.304,0,.571-.078,.804-.234s.488-.406,.768-.75v-4.14h.984v5.832h-.816l-.084-.912h-.035c-.272,.32-.559,.576-.858,.768-.3,.192-.654,.288-1.062,.288Z"/>
        <path class="cls-4" d="M158.807,18.974c-.416,0-.812-.076-1.188-.228-.376-.152-.704-.344-.984-.576l.492-.66c.256,.208,.518,.376,.786,.504,.268,.128,.577,.192,.93,.192,.384,0,.672-.088,.864-.265,.191-.176,.288-.392,.288-.647,0-.152-.04-.284-.12-.396-.08-.111-.183-.21-.307-.294s-.266-.157-.426-.222c-.16-.063-.319-.128-.479-.192-.208-.071-.416-.153-.624-.246-.208-.092-.395-.203-.559-.336-.164-.132-.298-.285-.401-.462-.104-.176-.156-.388-.156-.636,0-.231,.046-.45,.138-.654s.225-.38,.396-.527c.172-.148,.382-.265,.63-.349s.528-.126,.84-.126c.368,0,.706,.064,1.014,.192,.309,.128,.574,.284,.799,.468l-.469,.624c-.2-.151-.407-.275-.624-.372-.216-.096-.452-.144-.708-.144-.368,0-.638,.084-.81,.252s-.258,.364-.258,.588c0,.136,.036,.254,.107,.354,.072,.101,.168,.188,.288,.265s.258,.144,.414,.204c.156,.06,.318,.122,.486,.186,.208,.08,.418,.164,.63,.252s.402,.198,.57,.33,.306,.294,.414,.486c.107,.191,.161,.424,.161,.695,0,.24-.046,.465-.138,.673s-.228,.392-.408,.552c-.18,.16-.403,.286-.672,.378-.268,.092-.574,.138-.918,.138Z"/>
        <path class="cls-4" d="M164.148,18.974c-.312,0-.574-.048-.786-.144-.212-.097-.384-.229-.517-.396-.132-.168-.226-.372-.281-.611-.057-.24-.084-.505-.084-.792v-3.229h-.864v-.744l.912-.06,.12-1.632h.828v1.632h1.571v.804h-1.571v3.24c0,.359,.065,.638,.197,.834s.366,.294,.702,.294c.104,0,.216-.016,.336-.048s.229-.068,.324-.108l.192,.744c-.16,.056-.335,.106-.522,.15-.188,.044-.374,.065-.558,.065Z"/>
        <path class="cls-4" d="M166.367,18.83v-5.832h.815l.084,1.056h.036c.2-.368,.442-.66,.727-.876,.283-.216,.594-.324,.93-.324,.231,0,.439,.04,.624,.12l-.192,.864c-.096-.032-.184-.056-.264-.072-.08-.016-.18-.023-.3-.023-.248,0-.507,.1-.774,.3s-.502,.548-.702,1.044v3.744h-.983Z"/>
        <path class="cls-4" d="M171.875,18.974c-.488,0-.895-.144-1.218-.432-.324-.288-.486-.696-.486-1.225,0-.64,.284-1.13,.852-1.47,.568-.34,1.477-.578,2.725-.714,0-.184-.019-.364-.054-.54-.036-.176-.099-.332-.187-.468s-.21-.246-.366-.33c-.155-.084-.354-.126-.594-.126-.336,0-.652,.064-.948,.192s-.56,.271-.792,.432l-.384-.685c.271-.176,.604-.346,.996-.51,.392-.164,.824-.246,1.296-.246,.712,0,1.228,.219,1.548,.654,.32,.437,.48,1.019,.48,1.746v3.576h-.816l-.084-.696h-.036c-.28,.232-.58,.43-.899,.594-.32,.164-.664,.246-1.032,.246Zm.288-.792c.279,0,.544-.065,.792-.198,.248-.132,.512-.325,.792-.582v-1.619c-.488,.063-.898,.14-1.23,.228s-.6,.192-.804,.312c-.204,.119-.353,.258-.444,.413-.092,.156-.138,.326-.138,.511,0,.336,.1,.576,.3,.72s.444,.216,.732,.216Z"/>
        <path class="cls-4" d="M178.415,18.974c-.312,0-.574-.048-.786-.144-.212-.097-.384-.229-.517-.396-.132-.168-.226-.372-.281-.611-.057-.24-.084-.505-.084-.792v-3.229h-.864v-.744l.912-.06,.12-1.632h.828v1.632h1.571v.804h-1.571v3.24c0,.359,.065,.638,.197,.834s.366,.294,.702,.294c.104,0,.216-.016,.336-.048s.229-.068,.324-.108l.192,.744c-.16,.056-.335,.106-.522,.15-.188,.044-.374,.065-.558,.065Z"/>
        <path class="cls-4" d="M182.902,18.974c-.36,0-.702-.067-1.026-.204-.323-.136-.609-.334-.857-.594s-.446-.58-.594-.96c-.148-.38-.223-.81-.223-1.29,0-.488,.074-.922,.223-1.302,.147-.38,.346-.702,.594-.966,.248-.265,.534-.464,.857-.601,.324-.136,.666-.204,1.026-.204s.702,.068,1.026,.204c.323,.137,.609,.336,.857,.601,.248,.264,.446,.586,.595,.966,.147,.38,.222,.813,.222,1.302,0,.48-.074,.91-.222,1.29-.148,.38-.347,.7-.595,.96s-.534,.458-.857,.594c-.324,.137-.666,.204-1.026,.204Zm0-.815c.248,0,.476-.055,.684-.162,.208-.108,.387-.26,.534-.456,.148-.196,.263-.43,.342-.702,.08-.271,.12-.576,.12-.912s-.04-.642-.12-.918c-.079-.276-.193-.514-.342-.714-.147-.2-.326-.354-.534-.462-.208-.108-.436-.162-.684-.162s-.476,.054-.684,.162c-.208,.107-.387,.262-.534,.462-.148,.2-.263,.438-.342,.714-.08,.276-.12,.582-.12,.918s.04,.641,.12,.912c.079,.272,.193,.506,.342,.702,.147,.196,.326,.348,.534,.456,.208,.107,.436,.162,.684,.162Z"/>
        <path class="cls-4" d="M187.139,18.83v-5.832h.815l.084,1.056h.036c.2-.368,.442-.66,.727-.876,.283-.216,.594-.324,.93-.324,.231,0,.439,.04,.624,.12l-.192,.864c-.096-.032-.184-.056-.264-.072-.08-.016-.18-.023-.3-.023-.248,0-.507,.1-.774,.3s-.502,.548-.702,1.044v3.744h-.983Z"/>
        <path class="cls-4" d="M193.871,18.83v-5.028h-.792v-.744l.792-.06v-.924c0-.601,.138-1.072,.414-1.416,.275-.345,.705-.517,1.29-.517,.184,0,.357,.019,.521,.055,.164,.035,.313,.082,.45,.138l-.216,.756c-.216-.096-.437-.144-.66-.144-.544,0-.816,.376-.816,1.128v.924h1.236v.804h-1.236v5.028h-.983Z"/>
        <path class="cls-4" d="M197.711,11.798c-.192,0-.354-.06-.486-.18s-.198-.272-.198-.456c0-.192,.066-.347,.198-.462,.132-.116,.294-.175,.486-.175,.191,0,.354,.059,.485,.175,.133,.115,.198,.27,.198,.462,0,.184-.065,.336-.198,.456-.132,.12-.294,.18-.485,.18Zm-.504,7.032v-5.832h.983v5.832h-.983Z"/>
        <path class="cls-4" d="M201.203,18.974c-.376,0-.645-.112-.805-.336s-.239-.552-.239-.983v-7.368h.983v7.439c0,.16,.028,.272,.084,.336,.056,.064,.12,.097,.192,.097h.09c.028,0,.07-.008,.126-.024l.132,.744c-.063,.032-.14,.056-.228,.072-.089,.016-.2,.023-.336,.023Z"/>
        <path class="cls-4" d="M205.582,18.974c-.392,0-.758-.07-1.098-.21s-.636-.34-.888-.6-.45-.578-.595-.954c-.144-.376-.216-.804-.216-1.284s.074-.91,.223-1.29c.147-.38,.344-.702,.588-.966,.243-.264,.521-.466,.834-.606,.312-.14,.636-.21,.972-.21,.368,0,.698,.064,.99,.192s.536,.312,.731,.552c.196,.24,.347,.528,.45,.864,.104,.336,.156,.712,.156,1.128,0,.104-.002,.206-.006,.306-.004,.101-.015,.187-.03,.259h-3.936c.039,.624,.233,1.117,.582,1.481,.348,.364,.802,.546,1.361,.546,.28,0,.538-.042,.774-.126,.235-.084,.462-.193,.678-.33l.348,.648c-.256,.16-.54,.3-.852,.42-.312,.12-.668,.18-1.068,.18Zm-1.836-3.527h3.12c0-.593-.126-1.042-.378-1.351-.252-.308-.605-.462-1.062-.462-.209,0-.406,.04-.595,.12-.188,.08-.357,.198-.51,.354-.152,.156-.278,.347-.378,.57-.1,.225-.166,.48-.198,.769Z"/>
        <path class="cls-7" d="M98.855,33.974c-.488,0-.895-.144-1.218-.432-.324-.288-.486-.696-.486-1.225,0-.64,.284-1.13,.852-1.47,.568-.34,1.477-.578,2.725-.714,0-.184-.019-.364-.054-.54-.036-.176-.099-.332-.187-.468s-.21-.246-.366-.33c-.155-.084-.354-.126-.594-.126-.336,0-.652,.064-.948,.192s-.56,.271-.792,.432l-.384-.685c.271-.176,.604-.346,.996-.51,.392-.164,.824-.246,1.296-.246,.712,0,1.228,.219,1.548,.654,.32,.437,.48,1.019,.48,1.746v3.576h-.816l-.084-.696h-.036c-.28,.232-.58,.43-.899,.594-.32,.164-.664,.246-1.032,.246Zm.288-.792c.279,0,.544-.065,.792-.198,.248-.132,.512-.325,.792-.582v-1.619c-.488,.063-.898,.14-1.23,.228s-.6,.192-.804,.312c-.204,.119-.353,.258-.444,.413-.092,.156-.138,.326-.138,.511,0,.336,.1,.576,.3,.72s.444,.216,.732,.216Z"/>
        <path class="cls-7" d="M103.559,33.83v-5.832h.815l.084,.84h.036c.28-.28,.574-.514,.882-.702,.309-.188,.666-.282,1.074-.282,.616,0,1.066,.192,1.35,.576,.284,.384,.427,.952,.427,1.704v3.696h-.984v-3.564c0-.552-.088-.949-.264-1.193-.177-.244-.456-.366-.84-.366-.305,0-.572,.076-.805,.228-.231,.152-.496,.376-.792,.672v4.225h-.983Z"/>
        <path class="cls-7" d="M112.114,33.974c-.735,0-1.321-.264-1.758-.792-.436-.527-.653-1.279-.653-2.256,0-.472,.069-.897,.21-1.278,.14-.38,.325-.701,.558-.966,.231-.264,.5-.468,.804-.611,.304-.145,.624-.217,.96-.217s.628,.061,.876,.181,.5,.284,.756,.491l-.048-.995v-2.244h.996v8.544h-.815l-.084-.685h-.036c-.232,.225-.498,.418-.798,.582-.301,.164-.622,.246-.967,.246Zm.217-.828c.271,0,.527-.065,.768-.197,.24-.133,.48-.334,.72-.606v-3.048c-.248-.224-.485-.382-.714-.474-.228-.093-.462-.139-.702-.139-.231,0-.449,.054-.653,.162s-.383,.26-.534,.456c-.152,.196-.272,.43-.36,.702-.088,.271-.132,.576-.132,.912,0,.704,.14,1.252,.42,1.644,.28,.393,.676,.588,1.188,.588Z"/>
        <path class="cls-7" d="M120.707,33.974c-.416,0-.812-.076-1.188-.228-.376-.152-.704-.344-.984-.576l.492-.66c.256,.208,.518,.376,.786,.504,.268,.128,.577,.192,.93,.192,.384,0,.672-.088,.864-.265,.191-.176,.288-.392,.288-.647,0-.152-.04-.284-.12-.396-.08-.111-.183-.21-.307-.294s-.266-.157-.426-.222c-.16-.063-.319-.128-.479-.192-.208-.071-.416-.153-.624-.246-.208-.092-.395-.203-.559-.336-.164-.132-.298-.285-.401-.462-.104-.176-.156-.388-.156-.636,0-.231,.046-.45,.138-.654s.225-.38,.396-.527c.172-.148,.382-.265,.63-.349s.528-.126,.84-.126c.368,0,.706,.064,1.014,.192,.309,.128,.574,.284,.799,.468l-.469,.624c-.2-.151-.407-.275-.624-.372-.216-.096-.452-.144-.708-.144-.368,0-.638,.084-.81,.252s-.258,.364-.258,.588c0,.136,.036,.254,.107,.354,.072,.101,.168,.188,.288,.265s.258,.144,.414,.204c.156,.06,.318,.122,.486,.186,.208,.08,.418,.164,.63,.252s.402,.198,.57,.33,.306,.294,.414,.486c.107,.191,.161,.424,.161,.695,0,.24-.046,.465-.138,.673s-.228,.392-.408,.552c-.18,.16-.403,.286-.672,.378-.268,.092-.574,.138-.918,.138Z"/>
        <path class="cls-7" d="M125.556,33.974c-.488,0-.895-.144-1.218-.432-.324-.288-.486-.696-.486-1.225,0-.64,.284-1.13,.852-1.47,.568-.34,1.477-.578,2.725-.714,0-.184-.019-.364-.054-.54-.036-.176-.099-.332-.187-.468s-.21-.246-.366-.33c-.155-.084-.354-.126-.594-.126-.336,0-.652,.064-.948,.192s-.56,.271-.792,.432l-.384-.685c.271-.176,.604-.346,.996-.51,.392-.164,.824-.246,1.296-.246,.712,0,1.228,.219,1.548,.654,.32,.437,.48,1.019,.48,1.746v3.576h-.816l-.084-.696h-.036c-.28,.232-.58,.43-.899,.594-.32,.164-.664,.246-1.032,.246Zm.288-.792c.279,0,.544-.065,.792-.198,.248-.132,.512-.325,.792-.582v-1.619c-.488,.063-.898,.14-1.23,.228s-.6,.192-.804,.312c-.204,.119-.353,.258-.444,.413-.092,.156-.138,.326-.138,.511,0,.336,.1,.576,.3,.72s.444,.216,.732,.216Z"/>
        <path class="cls-7" d="M131.52,33.83l-2.101-5.832h1.021l1.104,3.312c.088,.288,.179,.576,.271,.864s.182,.572,.27,.852h.049c.088-.279,.176-.563,.264-.852l.264-.864,1.104-3.312h.972l-2.063,5.832h-1.152Z"/>
        <path class="cls-7" d="M138.227,33.974c-.392,0-.758-.07-1.098-.21s-.636-.34-.888-.6-.45-.578-.595-.954c-.144-.376-.216-.804-.216-1.284s.074-.91,.223-1.29c.147-.38,.344-.702,.588-.966,.243-.264,.521-.466,.834-.606,.312-.14,.636-.21,.972-.21,.368,0,.698,.064,.99,.192s.536,.312,.731,.552c.196,.24,.347,.528,.45,.864,.104,.336,.156,.712,.156,1.128,0,.104-.002,.206-.006,.306-.004,.101-.015,.187-.03,.259h-3.936c.039,.624,.233,1.117,.582,1.481,.348,.364,.802,.546,1.361,.546,.28,0,.538-.042,.774-.126,.235-.084,.462-.193,.678-.33l.348,.648c-.256,.16-.54,.3-.852,.42-.312,.12-.668,.18-1.068,.18Zm-1.836-3.527h3.12c0-.593-.126-1.042-.378-1.351-.252-.308-.605-.462-1.062-.462-.209,0-.406,.04-.595,.12-.188,.08-.357,.198-.51,.354-.152,.156-.278,.347-.378,.57-.1,.225-.166,.48-.198,.769Z"/>
        <path class="cls-7" d="M145.56,33.974c-.488,0-.895-.144-1.218-.432-.324-.288-.486-.696-.486-1.225,0-.64,.284-1.13,.852-1.47,.568-.34,1.477-.578,2.725-.714,0-.184-.019-.364-.054-.54-.036-.176-.099-.332-.187-.468s-.21-.246-.366-.33c-.155-.084-.354-.126-.594-.126-.336,0-.652,.064-.948,.192s-.56,.271-.792,.432l-.384-.685c.271-.176,.604-.346,.996-.51,.392-.164,.824-.246,1.296-.246,.712,0,1.228,.219,1.548,.654,.32,.437,.48,1.019,.48,1.746v3.576h-.816l-.084-.696h-.036c-.28,.232-.58,.43-.899,.594-.32,.164-.664,.246-1.032,.246Zm.288-.792c.279,0,.544-.065,.792-.198,.248-.132,.512-.325,.792-.582v-1.619c-.488,.063-.898,.14-1.23,.228s-.6,.192-.804,.312c-.204,.119-.353,.258-.444,.413-.092,.156-.138,.326-.138,.511,0,.336,.1,.576,.3,.72s.444,.216,.732,.216Z"/>
        <path class="cls-7" d="M150.264,33.83v-5.832h.815l.084,.84h.036c.28-.28,.574-.514,.882-.702,.309-.188,.666-.282,1.074-.282,.616,0,1.066,.192,1.35,.576,.284,.384,.427,.952,.427,1.704v3.696h-.984v-3.564c0-.552-.088-.949-.264-1.193-.177-.244-.456-.366-.84-.366-.305,0-.572,.076-.805,.228-.231,.152-.496,.376-.792,.672v4.225h-.983Z"/>
        <path class="cls-4" d="M161.508,33.974c-.552,0-1.063-.104-1.536-.312-.472-.208-.88-.492-1.224-.853l.6-.695c.28,.296,.61,.533,.99,.714,.38,.18,.774,.27,1.183,.27,.52,0,.924-.118,1.212-.354,.288-.236,.432-.546,.432-.931,0-.199-.034-.369-.102-.51-.068-.14-.16-.26-.276-.36-.116-.1-.254-.189-.414-.27s-.332-.164-.516-.252l-1.128-.492c-.185-.08-.372-.176-.564-.288-.192-.111-.364-.248-.516-.408-.152-.159-.276-.35-.372-.569-.097-.22-.145-.475-.145-.763,0-.295,.062-.571,.187-.827s.296-.479,.516-.666c.22-.188,.48-.334,.78-.438,.3-.104,.63-.156,.99-.156,.472,0,.907,.091,1.308,.271s.74,.414,1.021,.702l-.54,.647c-.24-.231-.507-.414-.799-.546s-.622-.198-.989-.198c-.44,0-.794,.103-1.062,.307-.268,.204-.401,.485-.401,.846,0,.192,.037,.354,.113,.486s.178,.248,.307,.348c.128,.101,.268,.188,.42,.264,.151,.076,.308,.146,.468,.21l1.116,.48c.224,.096,.436,.206,.636,.33s.372,.268,.516,.432c.145,.164,.259,.356,.343,.576s.126,.474,.126,.762c0,.312-.062,.604-.187,.876-.124,.272-.302,.511-.534,.715-.231,.203-.512,.363-.84,.479s-.7,.174-1.116,.174Z"/>
        <path class="cls-4" d="M167.172,33.83l-2.52-7.872h1.068l1.26,4.248c.144,.472,.27,.908,.378,1.308,.108,.4,.238,.832,.39,1.296h.048c.145-.464,.272-.896,.385-1.296,.111-.399,.235-.836,.372-1.308l1.26-4.248h1.02l-2.496,7.872h-1.164Z"/>
        <path class="cls-4" d="M175.008,33.974c-.52,0-.998-.092-1.434-.275-.437-.185-.811-.45-1.122-.799-.312-.348-.557-.775-.732-1.283-.176-.509-.264-1.082-.264-1.723,0-.632,.09-1.2,.27-1.704,.181-.504,.431-.932,.75-1.283,.32-.353,.702-.622,1.146-.811,.444-.188,.926-.282,1.446-.282,.271,0,.521,.028,.75,.084,.228,.057,.436,.131,.624,.223,.188,.092,.355,.196,.504,.312,.147,.116,.277,.234,.39,.354l-.552,.647c-.2-.208-.433-.384-.696-.527-.264-.145-.596-.217-.996-.217s-.76,.074-1.08,.223c-.319,.147-.592,.359-.815,.636-.225,.276-.398,.61-.522,1.002-.124,.393-.186,.832-.186,1.32,0,.496,.058,.941,.174,1.338,.116,.396,.284,.734,.504,1.014,.22,.28,.492,.496,.816,.648,.323,.151,.697,.228,1.122,.228,.279,0,.546-.042,.798-.126s.458-.198,.618-.342v-2.052h-1.669v-.828h2.58v3.312c-.256,.265-.592,.482-1.008,.654s-.888,.258-1.416,.258Z"/>
        <path class="cls-4" d="M182.881,33.83l-2.101-5.832h1.021l1.104,3.312c.088,.288,.179,.576,.271,.864s.182,.572,.27,.852h.049c.088-.279,.176-.563,.264-.852l.264-.864,1.104-3.312h.972l-2.063,5.832h-1.152Z"/>
        <path class="cls-4" d="M189.588,33.974c-.392,0-.758-.07-1.098-.21s-.636-.34-.888-.6-.45-.578-.595-.954c-.144-.376-.216-.804-.216-1.284s.074-.91,.223-1.29c.147-.38,.344-.702,.588-.966,.243-.264,.521-.466,.834-.606,.312-.14,.636-.21,.972-.21,.368,0,.698,.064,.99,.192s.536,.312,.731,.552c.196,.24,.347,.528,.45,.864,.104,.336,.156,.712,.156,1.128,0,.104-.002,.206-.006,.306-.004,.101-.015,.187-.03,.259h-3.936c.039,.624,.233,1.117,.582,1.481,.348,.364,.802,.546,1.361,.546,.28,0,.538-.042,.774-.126,.235-.084,.462-.193,.678-.33l.348,.648c-.256,.16-.54,.3-.852,.42-.312,.12-.668,.18-1.068,.18Zm-1.836-3.527h3.12c0-.593-.126-1.042-.378-1.351-.252-.308-.605-.462-1.062-.462-.209,0-.406,.04-.595,.12-.188,.08-.357,.198-.51,.354-.152,.156-.278,.347-.378,.57-.1,.225-.166,.48-.198,.769Z"/>
        <path class="cls-4" d="M193.177,33.83v-5.832h.815l.084,1.056h.036c.2-.368,.442-.66,.727-.876,.283-.216,.594-.324,.93-.324,.231,0,.439,.04,.624,.12l-.192,.864c-.096-.032-.184-.056-.264-.072-.08-.016-.18-.023-.3-.023-.248,0-.507,.1-.774,.3s-.502,.548-.702,1.044v3.744h-.983Z"/>
        <path class="cls-4" d="M198.864,33.974c-.416,0-.812-.076-1.188-.228-.376-.152-.704-.344-.984-.576l.492-.66c.256,.208,.518,.376,.786,.504,.268,.128,.577,.192,.93,.192,.384,0,.672-.088,.864-.265,.191-.176,.288-.392,.288-.647,0-.152-.04-.284-.12-.396-.08-.111-.183-.21-.307-.294s-.266-.157-.426-.222c-.16-.063-.319-.128-.479-.192-.208-.071-.416-.153-.624-.246-.208-.092-.395-.203-.559-.336-.164-.132-.298-.285-.401-.462-.104-.176-.156-.388-.156-.636,0-.231,.046-.45,.138-.654s.225-.38,.396-.527c.172-.148,.382-.265,.63-.349s.528-.126,.84-.126c.368,0,.706,.064,1.014,.192,.309,.128,.574,.284,.799,.468l-.469,.624c-.2-.151-.407-.275-.624-.372-.216-.096-.452-.144-.708-.144-.368,0-.638,.084-.81,.252s-.258,.364-.258,.588c0,.136,.036,.254,.107,.354,.072,.101,.168,.188,.288,.265s.258,.144,.414,.204c.156,.06,.318,.122,.486,.186,.208,.08,.418,.164,.63,.252s.402,.198,.57,.33,.306,.294,.414,.486c.107,.191,.161,.424,.161,.695,0,.24-.046,.465-.138,.673s-.228,.392-.408,.552c-.18,.16-.403,.286-.672,.378-.268,.092-.574,.138-.918,.138Z"/>
        <path class="cls-4" d="M202.873,26.798c-.192,0-.354-.06-.486-.18s-.198-.272-.198-.456c0-.192,.066-.347,.198-.462,.132-.116,.294-.175,.486-.175,.191,0,.354,.059,.485,.175,.133,.115,.198,.27,.198,.462,0,.184-.065,.336-.198,.456-.132,.12-.294,.18-.485,.18Zm-.504,7.032v-5.832h.983v5.832h-.983Z"/>
        <path class="cls-4" d="M207.589,33.974c-.36,0-.702-.067-1.026-.204-.323-.136-.609-.334-.857-.594s-.446-.58-.594-.96c-.148-.38-.223-.81-.223-1.29,0-.488,.074-.922,.223-1.302,.147-.38,.346-.702,.594-.966,.248-.265,.534-.464,.857-.601,.324-.136,.666-.204,1.026-.204s.702,.068,1.026,.204c.323,.137,.609,.336,.857,.601,.248,.264,.446,.586,.595,.966,.147,.38,.222,.813,.222,1.302,0,.48-.074,.91-.222,1.29-.148,.38-.347,.7-.595,.96s-.534,.458-.857,.594c-.324,.137-.666,.204-1.026,.204Zm0-.815c.248,0,.476-.055,.684-.162,.208-.108,.387-.26,.534-.456,.148-.196,.263-.43,.342-.702,.08-.271,.12-.576,.12-.912s-.04-.642-.12-.918c-.079-.276-.193-.514-.342-.714-.147-.2-.326-.354-.534-.462-.208-.108-.436-.162-.684-.162s-.476,.054-.684,.162c-.208,.107-.387,.262-.534,.462-.148,.2-.263,.438-.342,.714-.08,.276-.12,.582-.12,.918s.04,.641,.12,.912c.079,.272,.193,.506,.342,.702,.147,.196,.326,.348,.534,.456,.208,.107,.436,.162,.684,.162Z"/>
        <path class="cls-4" d="M211.825,33.83v-5.832h.815l.084,.84h.036c.28-.28,.574-.514,.882-.702,.309-.188,.666-.282,1.074-.282,.616,0,1.066,.192,1.35,.576,.284,.384,.427,.952,.427,1.704v3.696h-.984v-3.564c0-.552-.088-.949-.264-1.193-.177-.244-.456-.366-.84-.366-.305,0-.572,.076-.805,.228-.231,.152-.496,.376-.792,.672v4.225h-.983Z"/>
        <path class="cls-7" d="M98.015,41.798c-.192,0-.354-.06-.486-.18s-.198-.272-.198-.456c0-.192,.066-.347,.198-.462,.132-.116,.294-.175,.486-.175,.191,0,.354,.059,.485,.175,.133,.115,.198,.27,.198,.462,0,.184-.065,.336-.198,.456-.132,.12-.294,.18-.485,.18Zm-.504,7.032v-5.832h.983v5.832h-.983Z"/>
        <path class="cls-7" d="M100.463,48.83v-5.832h.815l.084,.84h.036c.28-.28,.574-.514,.882-.702,.309-.188,.666-.282,1.074-.282,.616,0,1.066,.192,1.35,.576,.284,.384,.427,.952,.427,1.704v3.696h-.984v-3.564c0-.552-.088-.949-.264-1.193-.177-.244-.456-.366-.84-.366-.305,0-.572,.076-.805,.228-.231,.152-.496,.376-.792,.672v4.225h-.983Z"/>
        <path class="cls-7" d="M110.951,48.974c-.416,0-.812-.076-1.188-.228-.376-.152-.704-.344-.984-.576l.492-.66c.256,.208,.518,.376,.786,.504,.268,.128,.577,.192,.93,.192,.384,0,.672-.088,.864-.265,.191-.176,.288-.392,.288-.647,0-.152-.04-.284-.12-.396-.08-.111-.183-.21-.307-.294s-.266-.157-.426-.222c-.16-.063-.319-.128-.479-.192-.208-.071-.416-.153-.624-.246-.208-.092-.395-.203-.559-.336-.164-.132-.298-.285-.401-.462-.104-.176-.156-.388-.156-.636,0-.231,.046-.45,.138-.654s.225-.38,.396-.527c.172-.148,.382-.265,.63-.349s.528-.126,.84-.126c.368,0,.706,.064,1.014,.192,.309,.128,.574,.284,.799,.468l-.469,.624c-.2-.151-.407-.275-.624-.372-.216-.096-.452-.144-.708-.144-.368,0-.638,.084-.81,.252s-.258,.364-.258,.588c0,.136,.036,.254,.107,.354,.072,.101,.168,.188,.288,.265s.258,.144,.414,.204c.156,.06,.318,.122,.486,.186,.208,.08,.418,.164,.63,.252s.402,.198,.57,.33,.306,.294,.414,.486c.107,.191,.161,.424,.161,.695,0,.24-.046,.465-.138,.673s-.228,.392-.408,.552c-.18,.16-.403,.286-.672,.378-.268,.092-.574,.138-.918,.138Z"/>
        <path class="cls-7" d="M114.552,51.338c-.136,0-.26-.01-.372-.03-.112-.02-.216-.05-.312-.09l.191-.78c.064,.017,.136,.034,.216,.055,.08,.02,.156,.029,.229,.029,.336,0,.609-.118,.821-.354,.212-.236,.379-.534,.498-.895l.133-.432-2.341-5.844h1.021l1.188,3.228c.088,.257,.183,.526,.282,.811,.101,.284,.194,.562,.282,.834h.048c.088-.265,.172-.54,.252-.828s.16-.56,.24-.816l1.044-3.228h.96l-2.196,6.312c-.104,.288-.22,.557-.348,.805-.128,.247-.28,.462-.456,.642s-.376,.322-.6,.426c-.225,.104-.484,.156-.78,.156Z"/>
        <path class="cls-7" d="M120.06,48.83v-5.832h.815l.084,.84h.036c.28-.28,.574-.514,.882-.702,.309-.188,.666-.282,1.074-.282,.616,0,1.066,.192,1.35,.576,.284,.384,.427,.952,.427,1.704v3.696h-.984v-3.564c0-.552-.088-.949-.264-1.193-.177-.244-.456-.366-.84-.366-.305,0-.572,.076-.805,.228-.231,.152-.496,.376-.792,.672v4.225h-.983Z"/>
        <path class="cls-7" d="M128.927,48.974c-.384,0-.744-.067-1.08-.204-.336-.136-.626-.334-.87-.594s-.436-.58-.576-.96c-.14-.38-.21-.81-.21-1.29,0-.488,.076-.922,.229-1.302,.151-.38,.355-.702,.611-.966,.256-.265,.555-.464,.895-.601,.34-.136,.697-.204,1.074-.204,.384,0,.712,.068,.983,.204,.272,.137,.512,.296,.721,.48l-.505,.647c-.168-.151-.346-.275-.533-.372-.188-.096-.398-.144-.63-.144-.265,0-.509,.054-.732,.162-.225,.107-.416,.262-.576,.462s-.286,.438-.378,.714-.138,.582-.138,.918,.044,.641,.132,.912c.088,.272,.21,.506,.366,.702,.155,.196,.346,.348,.569,.456,.225,.107,.469,.162,.732,.162,.271,0,.521-.059,.75-.175,.228-.115,.434-.254,.618-.413l.432,.659c-.264,.232-.556,.414-.876,.546-.32,.133-.656,.198-1.008,.198Z"/>
        <path class="cls-7" d="M131.231,50.75l3.204-10.44h.72l-3.204,10.44h-.72Z"/>
        <path class="cls-7" d="M138.574,48.974c-.552,0-1.063-.104-1.536-.312-.472-.208-.88-.492-1.224-.853l.6-.695c.28,.296,.61,.533,.99,.714,.38,.18,.774,.27,1.183,.27,.52,0,.924-.118,1.212-.354,.288-.236,.432-.546,.432-.931,0-.199-.034-.369-.102-.51-.068-.14-.16-.26-.276-.36-.116-.1-.254-.189-.414-.27s-.332-.164-.516-.252l-1.128-.492c-.185-.08-.372-.176-.564-.288-.192-.111-.364-.248-.516-.408-.152-.159-.276-.35-.372-.569-.097-.22-.145-.475-.145-.763,0-.295,.062-.571,.187-.827s.296-.479,.516-.666c.22-.188,.48-.334,.78-.438,.3-.104,.63-.156,.99-.156,.472,0,.907,.091,1.308,.271s.74,.414,1.021,.702l-.54,.647c-.24-.231-.507-.414-.799-.546s-.622-.198-.989-.198c-.44,0-.794,.103-1.062,.307-.268,.204-.401,.485-.401,.846,0,.192,.037,.354,.113,.486s.178,.248,.307,.348c.128,.101,.268,.188,.42,.264,.151,.076,.308,.146,.468,.21l1.116,.48c.224,.096,.436,.206,.636,.33s.372,.268,.516,.432c.145,.164,.259,.356,.343,.576s.126,.474,.126,.762c0,.312-.062,.604-.187,.876-.124,.272-.302,.511-.534,.715-.231,.203-.512,.363-.84,.479s-.7,.174-1.116,.174Z"/>
        <path class="cls-7" d="M143.963,48.83l-2.101-5.832h1.021l1.104,3.312c.088,.288,.179,.576,.271,.864s.182,.572,.27,.852h.049c.088-.279,.176-.563,.264-.852l.264-.864,1.104-3.312h.972l-2.063,5.832h-1.152Z"/>
        <path class="cls-7" d="M148.811,41.798c-.192,0-.354-.06-.486-.18s-.198-.272-.198-.456c0-.192,.066-.347,.198-.462,.132-.116,.294-.175,.486-.175,.191,0,.354,.059,.485,.175,.133,.115,.198,.27,.198,.462,0,.184-.065,.336-.198,.456-.132,.12-.294,.18-.485,.18Zm-.504,7.032v-5.832h.983v5.832h-.983Z"/>
        <path class="cls-7" d="M150.658,51.434c-.184,0-.348-.016-.492-.048-.144-.032-.268-.068-.372-.107l.204-.744c.072,.023,.156,.046,.252,.065,.097,.021,.196,.03,.301,.03,.288,0,.479-.101,.575-.3,.097-.2,.145-.48,.145-.84v-6.492h.984v6.492c0,.592-.12,1.063-.36,1.416-.24,.352-.652,.527-1.236,.527Zm1.116-9.636c-.192,0-.354-.06-.486-.18-.132-.12-.197-.272-.197-.456,0-.192,.065-.347,.197-.462,.133-.116,.294-.175,.486-.175,.184,0,.342,.059,.474,.175,.133,.115,.198,.27,.198,.462,0,.184-.065,.336-.198,.456-.132,.12-.29,.18-.474,.18Z"/>
        <path class="cls-7" d="M155.567,48.974c-.488,0-.895-.144-1.218-.432-.324-.288-.486-.696-.486-1.225,0-.64,.284-1.13,.852-1.47,.568-.34,1.477-.578,2.725-.714,0-.184-.019-.364-.054-.54-.036-.176-.099-.332-.187-.468s-.21-.246-.366-.33c-.155-.084-.354-.126-.594-.126-.336,0-.652,.064-.948,.192s-.56,.271-.792,.432l-.384-.685c.271-.176,.604-.346,.996-.51,.392-.164,.824-.246,1.296-.246,.712,0,1.228,.219,1.548,.654,.32,.437,.48,1.019,.48,1.746v3.576h-.816l-.084-.696h-.036c-.28,.232-.58,.43-.899,.594-.32,.164-.664,.246-1.032,.246Zm.288-.792c.279,0,.544-.065,.792-.198,.248-.132,.512-.325,.792-.582v-1.619c-.488,.063-.898,.14-1.23,.228s-.6,.192-.804,.312c-.204,.119-.353,.258-.444,.413-.092,.156-.138,.326-.138,.511,0,.336,.1,.576,.3,.72s.444,.216,.732,.216Z"/>
        <path class="cls-7" d="M159.406,50.75l3.204-10.44h.72l-3.204,10.44h-.72Z"/>
        <path class="cls-4" d="M166.75,48.974c-.552,0-1.063-.104-1.536-.312-.472-.208-.88-.492-1.224-.853l.6-.695c.28,.296,.61,.533,.99,.714,.38,.18,.774,.27,1.183,.27,.52,0,.924-.118,1.212-.354,.288-.236,.432-.546,.432-.931,0-.199-.034-.369-.102-.51-.068-.14-.16-.26-.276-.36-.116-.1-.254-.189-.414-.27s-.332-.164-.516-.252l-1.128-.492c-.185-.08-.372-.176-.564-.288-.192-.111-.364-.248-.516-.408-.152-.159-.276-.35-.372-.569-.097-.22-.145-.475-.145-.763,0-.295,.062-.571,.187-.827s.296-.479,.516-.666c.22-.188,.48-.334,.78-.438,.3-.104,.63-.156,.99-.156,.472,0,.907,.091,1.308,.271s.74,.414,1.021,.702l-.54,.647c-.24-.231-.507-.414-.799-.546s-.622-.198-.989-.198c-.44,0-.794,.103-1.062,.307-.268,.204-.401,.485-.401,.846,0,.192,.037,.354,.113,.486s.178,.248,.307,.348c.128,.101,.268,.188,.42,.264,.151,.076,.308,.146,.468,.21l1.116,.48c.224,.096,.436,.206,.636,.33s.372,.268,.516,.432c.145,.164,.259,.356,.343,.576s.126,.474,.126,.762c0,.312-.062,.604-.187,.876-.124,.272-.302,.511-.534,.715-.231,.203-.512,.363-.84,.479s-.7,.174-1.116,.174Z"/>
        <path class="cls-4" d="M172.414,48.83l-2.52-7.872h1.068l1.26,4.248c.144,.472,.27,.908,.378,1.308,.108,.4,.238,.832,.39,1.296h.048c.145-.464,.272-.896,.385-1.296,.111-.399,.235-.836,.372-1.308l1.26-4.248h1.02l-2.496,7.872h-1.164Z"/>
        <path class="cls-4" d="M180.25,48.974c-.52,0-.998-.092-1.434-.275-.437-.185-.811-.45-1.122-.799-.312-.348-.557-.775-.732-1.283-.176-.509-.264-1.082-.264-1.723,0-.632,.09-1.2,.27-1.704,.181-.504,.431-.932,.75-1.283,.32-.353,.702-.622,1.146-.811,.444-.188,.926-.282,1.446-.282,.271,0,.521,.028,.75,.084,.228,.057,.436,.131,.624,.223,.188,.092,.355,.196,.504,.312,.147,.116,.277,.234,.39,.354l-.552,.647c-.2-.208-.433-.384-.696-.527-.264-.145-.596-.217-.996-.217s-.76,.074-1.08,.223c-.319,.147-.592,.359-.815,.636-.225,.276-.398,.61-.522,1.002-.124,.393-.186,.832-.186,1.32,0,.496,.058,.941,.174,1.338,.116,.396,.284,.734,.504,1.014,.22,.28,.492,.496,.816,.648,.323,.151,.697,.228,1.122,.228,.279,0,.546-.042,.798-.126s.458-.198,.618-.342v-2.052h-1.669v-.828h2.58v3.312c-.256,.265-.592,.482-1.008,.654s-.888,.258-1.416,.258Z"/>
        <path class="cls-4" d="M186.959,48.83v-7.872h4.536v.84h-3.54v2.664h3v.84h-3v3.528h-.996Z"/>
        <path class="cls-4" d="M193.295,41.798c-.192,0-.354-.06-.486-.18s-.198-.272-.198-.456c0-.192,.066-.347,.198-.462,.132-.116,.294-.175,.486-.175,.191,0,.354,.059,.485,.175,.133,.115,.198,.27,.198,.462,0,.184-.065,.336-.198,.456-.132,.12-.294,.18-.485,.18Zm-.504,7.032v-5.832h.983v5.832h-.983Z"/>
        <path class="cls-4" d="M196.787,48.974c-.376,0-.645-.112-.805-.336s-.239-.552-.239-.983v-7.368h.983v7.439c0,.16,.028,.272,.084,.336,.056,.064,.12,.097,.192,.097h.09c.028,0,.07-.008,.126-.024l.132,.744c-.063,.032-.14,.056-.228,.072-.089,.016-.2,.023-.336,.023Z"/>
        <path class="cls-4" d="M201.166,48.974c-.392,0-.758-.07-1.098-.21s-.636-.34-.888-.6-.45-.578-.595-.954c-.144-.376-.216-.804-.216-1.284s.074-.91,.223-1.29c.147-.38,.344-.702,.588-.966,.243-.264,.521-.466,.834-.606,.312-.14,.636-.21,.972-.21,.368,0,.698,.064,.99,.192s.536,.312,.731,.552c.196,.24,.347,.528,.45,.864,.104,.336,.156,.712,.156,1.128,0,.104-.002,.206-.006,.306-.004,.101-.015,.187-.03,.259h-3.936c.039,.624,.233,1.117,.582,1.481,.348,.364,.802,.546,1.361,.546,.28,0,.538-.042,.774-.126,.235-.084,.462-.193,.678-.33l.348,.648c-.256,.16-.54,.3-.852,.42-.312,.12-.668,.18-1.068,.18Zm-1.836-3.527h3.12c0-.593-.126-1.042-.378-1.351-.252-.308-.605-.462-1.062-.462-.209,0-.406,.04-.595,.12-.188,.08-.357,.198-.51,.354-.152,.156-.278,.347-.378,.57-.1,.225-.166,.48-.198,.769Z"/>
        <path class="cls-4" d="M206.278,48.974c-.416,0-.812-.076-1.188-.228-.376-.152-.704-.344-.984-.576l.492-.66c.256,.208,.518,.376,.786,.504,.268,.128,.577,.192,.93,.192,.384,0,.672-.088,.864-.265,.191-.176,.288-.392,.288-.647,0-.152-.04-.284-.12-.396-.08-.111-.183-.21-.307-.294s-.266-.157-.426-.222c-.16-.063-.319-.128-.479-.192-.208-.071-.416-.153-.624-.246-.208-.092-.395-.203-.559-.336-.164-.132-.298-.285-.401-.462-.104-.176-.156-.388-.156-.636,0-.231,.046-.45,.138-.654s.225-.38,.396-.527c.172-.148,.382-.265,.63-.349s.528-.126,.84-.126c.368,0,.706,.064,1.014,.192,.309,.128,.574,.284,.799,.468l-.469,.624c-.2-.151-.407-.275-.624-.372-.216-.096-.452-.144-.708-.144-.368,0-.638,.084-.81,.252s-.258,.364-.258,.588c0,.136,.036,.254,.107,.354,.072,.101,.168,.188,.288,.265s.258,.144,.414,.204c.156,.06,.318,.122,.486,.186,.208,.08,.418,.164,.63,.252s.402,.198,.57,.33,.306,.294,.414,.486c.107,.191,.161,.424,.161,.695,0,.24-.046,.465-.138,.673s-.228,.392-.408,.552c-.18,.16-.403,.286-.672,.378-.268,.092-.574,.138-.918,.138Z"/>
        <path class="cls-7" d="M99.034,68.974c-.416,0-.812-.076-1.188-.228-.376-.152-.704-.344-.984-.576l.492-.66c.256,.208,.518,.376,.786,.504,.268,.128,.577,.192,.93,.192,.384,0,.672-.088,.864-.265,.191-.176,.288-.392,.288-.647,0-.152-.04-.284-.12-.396-.08-.111-.183-.21-.307-.294s-.266-.157-.426-.222c-.16-.063-.319-.128-.479-.192-.208-.071-.416-.153-.624-.246-.208-.092-.395-.203-.559-.336-.164-.132-.298-.285-.401-.462-.104-.176-.156-.388-.156-.636,0-.231,.046-.45,.138-.654s.225-.38,.396-.527c.172-.148,.382-.265,.63-.349s.528-.126,.84-.126c.368,0,.706,.064,1.014,.192,.309,.128,.574,.284,.799,.468l-.469,.624c-.2-.151-.407-.275-.624-.372-.216-.096-.452-.144-.708-.144-.368,0-.638,.084-.81,.252s-.258,.364-.258,.588c0,.136,.036,.254,.107,.354,.072,.101,.168,.188,.288,.265s.258,.144,.414,.204c.156,.06,.318,.122,.486,.186,.208,.08,.418,.164,.63,.252s.402,.198,.57,.33,.306,.294,.414,.486c.107,.191,.161,.424,.161,.695,0,.24-.046,.465-.138,.673s-.228,.392-.408,.552c-.18,.16-.403,.286-.672,.378-.268,.092-.574,.138-.918,.138Z"/>
        <path class="cls-7" d="M103.883,68.974c-.488,0-.895-.144-1.218-.432-.324-.288-.486-.696-.486-1.225,0-.64,.284-1.13,.852-1.47,.568-.34,1.477-.578,2.725-.714,0-.184-.019-.364-.054-.54-.036-.176-.099-.332-.187-.468s-.21-.246-.366-.33c-.155-.084-.354-.126-.594-.126-.336,0-.652,.064-.948,.192s-.56,.271-.792,.432l-.384-.685c.271-.176,.604-.346,.996-.51,.392-.164,.824-.246,1.296-.246,.712,0,1.228,.219,1.548,.654,.32,.437,.48,1.019,.48,1.746v3.576h-.816l-.084-.696h-.036c-.28,.232-.58,.43-.899,.594-.32,.164-.664,.246-1.032,.246Zm.288-.792c.279,0,.544-.065,.792-.198,.248-.132,.512-.325,.792-.582v-1.619c-.488,.063-.898,.14-1.23,.228s-.6,.192-.804,.312c-.204,.119-.353,.258-.444,.413-.092,.156-.138,.326-.138,.511,0,.336,.1,.576,.3,.72s.444,.216,.732,.216Z"/>
        <path class="cls-7" d="M109.847,68.83l-2.101-5.832h1.021l1.104,3.312c.088,.288,.179,.576,.271,.864s.182,.572,.27,.852h.049c.088-.279,.176-.563,.264-.852l.264-.864,1.104-3.312h.972l-2.063,5.832h-1.152Z"/>
        <path class="cls-7" d="M116.554,68.974c-.392,0-.758-.07-1.098-.21s-.636-.34-.888-.6-.45-.578-.595-.954c-.144-.376-.216-.804-.216-1.284s.074-.91,.223-1.29c.147-.38,.344-.702,.588-.966,.243-.264,.521-.466,.834-.606,.312-.14,.636-.21,.972-.21,.368,0,.698,.064,.99,.192s.536,.312,.731,.552c.196,.24,.347,.528,.45,.864,.104,.336,.156,.712,.156,1.128,0,.104-.002,.206-.006,.306-.004,.101-.015,.187-.03,.259h-3.936c.039,.624,.233,1.117,.582,1.481,.348,.364,.802,.546,1.361,.546,.28,0,.538-.042,.774-.126,.235-.084,.462-.193,.678-.33l.348,.648c-.256,.16-.54,.3-.852,.42-.312,.12-.668,.18-1.068,.18Zm-1.836-3.527h3.12c0-.593-.126-1.042-.378-1.351-.252-.308-.605-.462-1.062-.462-.209,0-.406,.04-.595,.12-.188,.08-.357,.198-.51,.354-.152,.156-.278,.347-.378,.57-.1,.225-.166,.48-.198,.769Z"/>
        <path class="cls-4" d="M123.887,68.974c-.488,0-.895-.144-1.218-.432-.324-.288-.486-.696-.486-1.225,0-.64,.284-1.13,.852-1.47,.568-.34,1.477-.578,2.725-.714,0-.184-.019-.364-.054-.54-.036-.176-.099-.332-.187-.468s-.21-.246-.366-.33c-.155-.084-.354-.126-.594-.126-.336,0-.652,.064-.948,.192s-.56,.271-.792,.432l-.384-.685c.271-.176,.604-.346,.996-.51,.392-.164,.824-.246,1.296-.246,.712,0,1.228,.219,1.548,.654,.32,.437,.48,1.019,.48,1.746v3.576h-.816l-.084-.696h-.036c-.28,.232-.58,.43-.899,.594-.32,.164-.664,.246-1.032,.246Zm.288-.792c.279,0,.544-.065,.792-.198,.248-.132,.512-.325,.792-.582v-1.619c-.488,.063-.898,.14-1.23,.228s-.6,.192-.804,.312c-.204,.119-.353,.258-.444,.413-.092,.156-.138,.326-.138,.511,0,.336,.1,.576,.3,.72s.444,.216,.732,.216Z"/>
        <path class="cls-4" d="M129.635,68.974c-.376,0-.645-.112-.805-.336s-.239-.552-.239-.983v-7.368h.983v7.439c0,.16,.028,.272,.084,.336,.056,.064,.12,.097,.192,.097h.09c.028,0,.07-.008,.126-.024l.132,.744c-.063,.032-.14,.056-.228,.072-.089,.016-.2,.023-.336,.023Z"/>
        <path class="cls-4" d="M132.694,68.974c-.376,0-.645-.112-.805-.336s-.239-.552-.239-.983v-7.368h.983v7.439c0,.16,.028,.272,.084,.336,.056,.064,.12,.097,.192,.097h.09c.028,0,.07-.008,.126-.024l.132,.744c-.063,.032-.14,.056-.228,.072-.089,.016-.2,.023-.336,.023Z"/>
        <path class="cls-4" d="M139.378,68.974c-.36,0-.702-.067-1.026-.204-.323-.136-.609-.334-.857-.594s-.446-.58-.594-.96c-.148-.38-.223-.81-.223-1.29,0-.488,.074-.922,.223-1.302,.147-.38,.346-.702,.594-.966,.248-.265,.534-.464,.857-.601,.324-.136,.666-.204,1.026-.204s.702,.068,1.026,.204c.323,.137,.609,.336,.857,.601,.248,.264,.446,.586,.595,.966,.147,.38,.222,.813,.222,1.302,0,.48-.074,.91-.222,1.29-.148,.38-.347,.7-.595,.96s-.534,.458-.857,.594c-.324,.137-.666,.204-1.026,.204Zm0-.815c.248,0,.476-.055,.684-.162,.208-.108,.387-.26,.534-.456,.148-.196,.263-.43,.342-.702,.08-.271,.12-.576,.12-.912s-.04-.642-.12-.918c-.079-.276-.193-.514-.342-.714-.147-.2-.326-.354-.534-.462-.208-.108-.436-.162-.684-.162s-.476,.054-.684,.162c-.208,.107-.387,.262-.534,.462-.148,.2-.263,.438-.342,.714-.08,.276-.12,.582-.12,.918s.04,.641,.12,.912c.079,.272,.193,.506,.342,.702,.147,.196,.326,.348,.534,.456,.208,.107,.436,.162,.684,.162Z"/>
        <path class="cls-4" d="M143.614,71.29v-8.292h.815l.084,.672h.036c.264-.224,.554-.416,.87-.576,.315-.16,.646-.24,.99-.24,.376,0,.708,.07,.996,.21,.288,.141,.527,.341,.72,.601s.338,.572,.438,.936c.101,.364,.15,.774,.15,1.23,0,.496-.068,.938-.204,1.326-.136,.388-.32,.718-.552,.989-.232,.272-.5,.479-.804,.618-.305,.14-.624,.21-.96,.21-.272,0-.543-.06-.811-.18s-.538-.284-.81-.492l.023,1.021v1.968h-.983Zm2.412-3.145c.239,0,.462-.054,.665-.162,.204-.107,.38-.26,.528-.455,.148-.196,.264-.438,.349-.727,.084-.288,.126-.612,.126-.972,0-.32-.028-.612-.084-.876-.057-.265-.146-.49-.271-.679-.124-.188-.284-.333-.479-.438-.196-.104-.431-.156-.702-.156-.248,0-.498,.068-.75,.204s-.522,.332-.811,.588v3.061c.265,.224,.521,.382,.769,.474,.247,.092,.468,.138,.66,.138Z"/>
        <path class="cls-4" d="M152.638,68.974c-.392,0-.758-.07-1.098-.21s-.636-.34-.888-.6-.45-.578-.595-.954c-.144-.376-.216-.804-.216-1.284s.074-.91,.223-1.29c.147-.38,.344-.702,.588-.966,.243-.264,.521-.466,.834-.606,.312-.14,.636-.21,.972-.21,.368,0,.698,.064,.99,.192s.536,.312,.731,.552c.196,.24,.347,.528,.45,.864,.104,.336,.156,.712,.156,1.128,0,.104-.002,.206-.006,.306-.004,.101-.015,.187-.03,.259h-3.936c.039,.624,.233,1.117,.582,1.481,.348,.364,.802,.546,1.361,.546,.28,0,.538-.042,.774-.126,.235-.084,.462-.193,.678-.33l.348,.648c-.256,.16-.54,.3-.852,.42-.312,.12-.668,.18-1.068,.18Zm-1.836-3.527h3.12c0-.593-.126-1.042-.378-1.351-.252-.308-.605-.462-1.062-.462-.209,0-.406,.04-.595,.12-.188,.08-.357,.198-.51,.354-.152,.156-.278,.347-.378,.57-.1,.225-.166,.48-.198,.769Z"/>
        <path class="cls-4" d="M156.227,68.83v-5.832h.815l.084,.84h.036c.28-.28,.574-.514,.882-.702,.309-.188,.666-.282,1.074-.282,.616,0,1.066,.192,1.35,.576,.284,.384,.427,.952,.427,1.704v3.696h-.984v-3.564c0-.552-.088-.949-.264-1.193-.177-.244-.456-.366-.84-.366-.305,0-.572,.076-.805,.228-.231,.152-.496,.376-.792,.672v4.225h-.983Z"/>
        <path class="cls-4" d="M165.359,68.83v-5.028h-.792v-.744l.792-.06v-.924c0-.601,.138-1.072,.414-1.416,.275-.345,.705-.517,1.29-.517,.184,0,.357,.019,.521,.055,.164,.035,.313,.082,.45,.138l-.216,.756c-.216-.096-.437-.144-.66-.144-.544,0-.816,.376-.816,1.128v.924h1.236v.804h-1.236v5.028h-.983Z"/>
        <path class="cls-4" d="M169.199,61.798c-.192,0-.354-.06-.486-.18s-.198-.272-.198-.456c0-.192,.066-.347,.198-.462,.132-.116,.294-.175,.486-.175,.191,0,.354,.059,.485,.175,.133,.115,.198,.27,.198,.462,0,.184-.065,.336-.198,.456-.132,.12-.294,.18-.485,.18Zm-.504,7.032v-5.832h.983v5.832h-.983Z"/>
        <path class="cls-4" d="M172.692,68.974c-.376,0-.645-.112-.805-.336s-.239-.552-.239-.983v-7.368h.983v7.439c0,.16,.028,.272,.084,.336,.056,.064,.12,.097,.192,.097h.09c.028,0,.07-.008,.126-.024l.132,.744c-.063,.032-.14,.056-.228,.072-.089,.016-.2,.023-.336,.023Z"/>
        <path class="cls-4" d="M177.07,68.974c-.392,0-.758-.07-1.098-.21s-.636-.34-.888-.6-.45-.578-.595-.954c-.144-.376-.216-.804-.216-1.284s.074-.91,.223-1.29c.147-.38,.344-.702,.588-.966,.243-.264,.521-.466,.834-.606,.312-.14,.636-.21,.972-.21,.368,0,.698,.064,.99,.192s.536,.312,.731,.552c.196,.24,.347,.528,.45,.864,.104,.336,.156,.712,.156,1.128,0,.104-.002,.206-.006,.306-.004,.101-.015,.187-.03,.259h-3.936c.039,.624,.233,1.117,.582,1.481,.348,.364,.802,.546,1.361,.546,.28,0,.538-.042,.774-.126,.235-.084,.462-.193,.678-.33l.348,.648c-.256,.16-.54,.3-.852,.42-.312,.12-.668,.18-1.068,.18Zm-1.836-3.527h3.12c0-.593-.126-1.042-.378-1.351-.252-.308-.605-.462-1.062-.462-.209,0-.406,.04-.595,.12-.188,.08-.357,.198-.51,.354-.152,.156-.278,.347-.378,.57-.1,.225-.166,.48-.198,.769Z"/>
        <path class="cls-4" d="M182.183,68.974c-.416,0-.812-.076-1.188-.228-.376-.152-.704-.344-.984-.576l.492-.66c.256,.208,.518,.376,.786,.504,.268,.128,.577,.192,.93,.192,.384,0,.672-.088,.864-.265,.191-.176,.288-.392,.288-.647,0-.152-.04-.284-.12-.396-.08-.111-.183-.21-.307-.294s-.266-.157-.426-.222c-.16-.063-.319-.128-.479-.192-.208-.071-.416-.153-.624-.246-.208-.092-.395-.203-.559-.336-.164-.132-.298-.285-.401-.462-.104-.176-.156-.388-.156-.636,0-.231,.046-.45,.138-.654s.225-.38,.396-.527c.172-.148,.382-.265,.63-.349s.528-.126,.84-.126c.368,0,.706,.064,1.014,.192,.309,.128,.574,.284,.799,.468l-.469,.624c-.2-.151-.407-.275-.624-.372-.216-.096-.452-.144-.708-.144-.368,0-.638,.084-.81,.252s-.258,.364-.258,.588c0,.136,.036,.254,.107,.354,.072,.101,.168,.188,.288,.265s.258,.144,.414,.204c.156,.06,.318,.122,.486,.186,.208,.08,.418,.164,.63,.252s.402,.198,.57,.33,.306,.294,.414,.486c.107,.191,.161,.424,.161,.695,0,.24-.046,.465-.138,.673s-.228,.392-.408,.552c-.18,.16-.403,.286-.672,.378-.268,.092-.574,.138-.918,.138Z"/>
        <path class="cls-7" d="M99.034,88.974c-.416,0-.812-.076-1.188-.228-.376-.152-.704-.344-.984-.576l.492-.66c.256,.208,.518,.376,.786,.504,.268,.128,.577,.192,.93,.192,.384,0,.672-.088,.864-.265,.191-.176,.288-.392,.288-.647,0-.152-.04-.284-.12-.396-.08-.111-.183-.21-.307-.294s-.266-.157-.426-.222c-.16-.063-.319-.128-.479-.192-.208-.071-.416-.153-.624-.246-.208-.092-.395-.203-.559-.336-.164-.132-.298-.285-.401-.462-.104-.176-.156-.388-.156-.636,0-.231,.046-.45,.138-.654s.225-.38,.396-.527c.172-.148,.382-.265,.63-.349s.528-.126,.84-.126c.368,0,.706,.064,1.014,.192,.309,.128,.574,.284,.799,.468l-.469,.624c-.2-.151-.407-.275-.624-.372-.216-.096-.452-.144-.708-.144-.368,0-.638,.084-.81,.252s-.258,.364-.258,.588c0,.136,.036,.254,.107,.354,.072,.101,.168,.188,.288,.265s.258,.144,.414,.204c.156,.06,.318,.122,.486,.186,.208,.08,.418,.164,.63,.252s.402,.198,.57,.33,.306,.294,.414,.486c.107,.191,.161,.424,.161,.695,0,.24-.046,.465-.138,.673s-.228,.392-.408,.552c-.18,.16-.403,.286-.672,.378-.268,.092-.574,.138-.918,.138Z"/>
        <path class="cls-7" d="M103.883,88.974c-.488,0-.895-.144-1.218-.432-.324-.288-.486-.696-.486-1.225,0-.64,.284-1.13,.852-1.47,.568-.34,1.477-.578,2.725-.714,0-.184-.019-.364-.054-.54-.036-.176-.099-.332-.187-.468s-.21-.246-.366-.33c-.155-.084-.354-.126-.594-.126-.336,0-.652,.064-.948,.192s-.56,.271-.792,.432l-.384-.685c.271-.176,.604-.346,.996-.51,.392-.164,.824-.246,1.296-.246,.712,0,1.228,.219,1.548,.654,.32,.437,.48,1.019,.48,1.746v3.576h-.816l-.084-.696h-.036c-.28,.232-.58,.43-.899,.594-.32,.164-.664,.246-1.032,.246Zm.288-.792c.279,0,.544-.065,.792-.198,.248-.132,.512-.325,.792-.582v-1.619c-.488,.063-.898,.14-1.23,.228s-.6,.192-.804,.312c-.204,.119-.353,.258-.444,.413-.092,.156-.138,.326-.138,.511,0,.336,.1,.576,.3,.72s.444,.216,.732,.216Z"/>
        <path class="cls-7" d="M109.847,88.83l-2.101-5.832h1.021l1.104,3.312c.088,.288,.179,.576,.271,.864s.182,.572,.27,.852h.049c.088-.279,.176-.563,.264-.852l.264-.864,1.104-3.312h.972l-2.063,5.832h-1.152Z"/>
        <path class="cls-7" d="M116.554,88.974c-.392,0-.758-.07-1.098-.21s-.636-.34-.888-.6-.45-.578-.595-.954c-.144-.376-.216-.804-.216-1.284s.074-.91,.223-1.29c.147-.38,.344-.702,.588-.966,.243-.264,.521-.466,.834-.606,.312-.14,.636-.21,.972-.21,.368,0,.698,.064,.99,.192s.536,.312,.731,.552c.196,.24,.347,.528,.45,.864,.104,.336,.156,.712,.156,1.128,0,.104-.002,.206-.006,.306-.004,.101-.015,.187-.03,.259h-3.936c.039,.624,.233,1.117,.582,1.481,.348,.364,.802,.546,1.361,.546,.28,0,.538-.042,.774-.126,.235-.084,.462-.193,.678-.33l.348,.648c-.256,.16-.54,.3-.852,.42-.312,.12-.668,.18-1.068,.18Zm-1.836-3.527h3.12c0-.593-.126-1.042-.378-1.351-.252-.308-.605-.462-1.062-.462-.209,0-.406,.04-.595,.12-.188,.08-.357,.198-.51,.354-.152,.156-.278,.347-.378,.57-.1,.225-.166,.48-.198,.769Z"/>
        <path class="cls-7" d="M123.047,81.798c-.192,0-.354-.06-.486-.18s-.198-.272-.198-.456c0-.192,.066-.347,.198-.462,.132-.116,.294-.175,.486-.175,.191,0,.354,.059,.485,.175,.133,.115,.198,.27,.198,.462,0,.184-.065,.336-.198,.456-.132,.12-.294,.18-.485,.18Zm-.504,7.032v-5.832h.983v5.832h-.983Z"/>
        <path class="cls-7" d="M125.495,88.83v-5.832h.815l.084,.84h.036c.28-.28,.574-.514,.882-.702,.309-.188,.666-.282,1.074-.282,.616,0,1.066,.192,1.35,.576,.284,.384,.427,.952,.427,1.704v3.696h-.984v-3.564c0-.552-.088-.949-.264-1.193-.177-.244-.456-.366-.84-.366-.305,0-.572,.076-.805,.228-.231,.152-.496,.376-.792,.672v4.225h-.983Z"/>
        <path class="cls-7" d="M134.362,88.974c-.384,0-.744-.067-1.08-.204-.336-.136-.626-.334-.87-.594s-.436-.58-.576-.96c-.14-.38-.21-.81-.21-1.29,0-.488,.076-.922,.229-1.302,.151-.38,.355-.702,.611-.966,.256-.265,.555-.464,.895-.601,.34-.136,.697-.204,1.074-.204,.384,0,.712,.068,.983,.204,.272,.137,.512,.296,.721,.48l-.505,.647c-.168-.151-.346-.275-.533-.372-.188-.096-.398-.144-.63-.144-.265,0-.509,.054-.732,.162-.225,.107-.416,.262-.576,.462s-.286,.438-.378,.714-.138,.582-.138,.918,.044,.641,.132,.912c.088,.272,.21,.506,.366,.702,.155,.196,.346,.348,.569,.456,.225,.107,.469,.162,.732,.162,.271,0,.521-.059,.75-.175,.228-.115,.434-.254,.618-.413l.432,.659c-.264,.232-.556,.414-.876,.546-.32,.133-.656,.198-1.008,.198Z"/>
        <path class="cls-7" d="M138.574,88.974c-.376,0-.645-.112-.805-.336s-.239-.552-.239-.983v-7.368h.983v7.439c0,.16,.028,.272,.084,.336,.056,.064,.12,.097,.192,.097h.09c.028,0,.07-.008,.126-.024l.132,.744c-.063,.032-.14,.056-.228,.072-.089,.016-.2,.023-.336,.023Z"/>
        <path class="cls-7" d="M142.294,88.974c-.624,0-1.078-.191-1.362-.576-.284-.384-.426-.951-.426-1.704v-3.695h.996v3.563c0,.553,.085,.95,.258,1.194,.172,.244,.449,.366,.834,.366,.304,0,.571-.078,.804-.234s.488-.406,.768-.75v-4.14h.984v5.832h-.816l-.084-.912h-.035c-.272,.32-.559,.576-.858,.768-.3,.192-.654,.288-1.062,.288Z"/>
        <path class="cls-7" d="M149.109,88.974c-.735,0-1.321-.264-1.758-.792-.436-.527-.653-1.279-.653-2.256,0-.472,.069-.897,.21-1.278,.14-.38,.325-.701,.558-.966,.231-.264,.5-.468,.804-.611,.304-.145,.624-.217,.96-.217s.628,.061,.876,.181,.5,.284,.756,.491l-.048-.995v-2.244h.996v8.544h-.815l-.084-.685h-.036c-.232,.225-.498,.418-.798,.582-.301,.164-.622,.246-.967,.246Zm.217-.828c.271,0,.527-.065,.768-.197,.24-.133,.48-.334,.72-.606v-3.048c-.248-.224-.485-.382-.714-.474-.228-.093-.462-.139-.702-.139-.231,0-.449,.054-.653,.162s-.383,.26-.534,.456c-.152,.196-.272,.43-.36,.702-.088,.271-.132,.576-.132,.912,0,.704,.14,1.252,.42,1.644,.28,.393,.676,.588,1.188,.588Z"/>
        <path class="cls-7" d="M154.282,81.798c-.192,0-.354-.06-.486-.18s-.198-.272-.198-.456c0-.192,.066-.347,.198-.462,.132-.116,.294-.175,.486-.175,.191,0,.354,.059,.485,.175,.133,.115,.198,.27,.198,.462,0,.184-.065,.336-.198,.456-.132,.12-.294,.18-.485,.18Zm-.504,7.032v-5.832h.983v5.832h-.983Z"/>
        <path class="cls-7" d="M156.731,88.83v-5.832h.815l.084,.84h.036c.28-.28,.574-.514,.882-.702,.309-.188,.666-.282,1.074-.282,.616,0,1.066,.192,1.35,.576,.284,.384,.427,.952,.427,1.704v3.696h-.984v-3.564c0-.552-.088-.949-.264-1.193-.177-.244-.456-.366-.84-.366-.305,0-.572,.076-.805,.228-.231,.152-.496,.376-.792,.672v4.225h-.983Z"/>
        <path class="cls-7" d="M165.263,91.518c-.36,0-.688-.034-.984-.102-.296-.068-.55-.17-.762-.307-.212-.136-.376-.3-.492-.491-.116-.192-.174-.416-.174-.672,0-.248,.076-.484,.228-.708,.152-.225,.36-.429,.624-.612v-.048c-.144-.088-.266-.21-.365-.366-.101-.156-.15-.35-.15-.582,0-.248,.068-.464,.204-.648,.136-.184,.28-.327,.432-.432v-.048c-.191-.16-.365-.374-.521-.643-.156-.268-.234-.577-.234-.93,0-.319,.058-.607,.174-.864,.116-.256,.274-.474,.475-.653,.199-.181,.434-.318,.702-.414,.268-.097,.55-.145,.846-.145,.16,0,.31,.015,.45,.042,.14,.028,.266,.062,.378,.103h2.027v.756h-1.199c.136,.136,.25,.308,.342,.516s.138,.437,.138,.685c0,.312-.056,.594-.168,.846s-.264,.464-.456,.636c-.191,.173-.418,.307-.678,.402s-.538,.144-.834,.144c-.145,0-.292-.018-.444-.054s-.296-.086-.432-.149c-.104,.088-.192,.186-.265,.294-.071,.107-.107,.241-.107,.401,0,.185,.072,.336,.216,.456,.145,.12,.416,.18,.816,.18h1.128c.68,0,1.189,.11,1.529,.33,.341,.221,.511,.574,.511,1.062,0,.271-.068,.529-.204,.773-.137,.244-.332,.458-.588,.643-.257,.184-.566,.33-.931,.438-.363,.108-.773,.162-1.229,.162Zm.144-.684c.28,0,.534-.034,.763-.103,.228-.067,.422-.155,.582-.264,.159-.108,.283-.234,.371-.378,.089-.144,.133-.292,.133-.444,0-.271-.101-.46-.301-.563-.199-.104-.491-.156-.876-.156h-1.008c-.112,0-.233-.006-.366-.018-.132-.013-.262-.038-.39-.078-.208,.151-.36,.312-.456,.479s-.144,.336-.144,.504c0,.312,.149,.561,.449,.744,.301,.185,.715,.276,1.242,.276Zm-.144-4.512c.168,0,.326-.032,.474-.097,.148-.063,.28-.155,.396-.275,.115-.12,.206-.267,.27-.438,.064-.172,.097-.366,.097-.582,0-.432-.12-.766-.36-1.002-.24-.235-.532-.354-.876-.354s-.636,.118-.876,.354c-.24,.236-.36,.57-.36,1.002,0,.216,.032,.41,.096,.582,.064,.172,.154,.318,.271,.438s.248,.212,.396,.275c.148,.064,.307,.097,.475,.097Z"/>
        <path class="cls-7" d="M173.087,88.974c-.488,0-.895-.144-1.218-.432-.324-.288-.486-.696-.486-1.225,0-.64,.284-1.13,.852-1.47,.568-.34,1.477-.578,2.725-.714,0-.184-.019-.364-.054-.54-.036-.176-.099-.332-.187-.468s-.21-.246-.366-.33c-.155-.084-.354-.126-.594-.126-.336,0-.652,.064-.948,.192s-.56,.271-.792,.432l-.384-.685c.271-.176,.604-.346,.996-.51,.392-.164,.824-.246,1.296-.246,.712,0,1.228,.219,1.548,.654,.32,.437,.48,1.019,.48,1.746v3.576h-.816l-.084-.696h-.036c-.28,.232-.58,.43-.899,.594-.32,.164-.664,.246-1.032,.246Zm.288-.792c.279,0,.544-.065,.792-.198,.248-.132,.512-.325,.792-.582v-1.619c-.488,.063-.898,.14-1.23,.228s-.6,.192-.804,.312c-.204,.119-.353,.258-.444,.413-.092,.156-.138,.326-.138,.511,0,.336,.1,.576,.3,.72s.444,.216,.732,.216Z"/>
        <path class="cls-7" d="M177.791,88.83v-5.832h.815l.084,1.056h.036c.2-.368,.442-.66,.727-.876,.283-.216,.594-.324,.93-.324,.231,0,.439,.04,.624,.12l-.192,.864c-.096-.032-.184-.056-.264-.072-.08-.016-.18-.023-.3-.023-.248,0-.507,.1-.774,.3s-.502,.548-.702,1.044v3.744h-.983Z"/>
        <path class="cls-7" d="M183.791,88.974c-.312,0-.574-.048-.786-.144-.212-.097-.384-.229-.517-.396-.132-.168-.226-.372-.281-.611-.057-.24-.084-.505-.084-.792v-3.229h-.864v-.744l.912-.06,.12-1.632h.828v1.632h1.571v.804h-1.571v3.24c0,.359,.065,.638,.197,.834s.366,.294,.702,.294c.104,0,.216-.016,.336-.048s.229-.068,.324-.108l.192,.744c-.16,.056-.335,.106-.522,.15-.188,.044-.374,.065-.558,.065Z"/>
        <path class="cls-7" d="M186.935,88.83l-1.62-5.832h1.008l.864,3.372c.063,.28,.124,.552,.18,.815,.056,.265,.112,.532,.168,.805h.048c.064-.272,.128-.542,.192-.811,.063-.268,.132-.538,.204-.81l.899-3.372h.96l.912,3.372c.072,.28,.143,.552,.21,.815,.068,.265,.135,.532,.198,.805h.048c.064-.272,.124-.54,.181-.805,.056-.264,.115-.535,.18-.815l.852-3.372h.937l-1.561,5.832h-1.199l-.841-3.132c-.071-.28-.138-.557-.197-.828-.061-.272-.126-.557-.198-.853h-.048c-.064,.296-.128,.582-.192,.858-.063,.275-.136,.554-.216,.834l-.816,3.12h-1.151Z"/>
        <path class="cls-7" d="M196.895,88.974c-.36,0-.702-.067-1.026-.204-.323-.136-.609-.334-.857-.594s-.446-.58-.594-.96c-.148-.38-.223-.81-.223-1.29,0-.488,.074-.922,.223-1.302,.147-.38,.346-.702,.594-.966,.248-.265,.534-.464,.857-.601,.324-.136,.666-.204,1.026-.204s.702,.068,1.026,.204c.323,.137,.609,.336,.857,.601,.248,.264,.446,.586,.595,.966,.147,.38,.222,.813,.222,1.302,0,.48-.074,.91-.222,1.29-.148,.38-.347,.7-.595,.96s-.534,.458-.857,.594c-.324,.137-.666,.204-1.026,.204Zm0-.815c.248,0,.476-.055,.684-.162,.208-.108,.387-.26,.534-.456,.148-.196,.263-.43,.342-.702,.08-.271,.12-.576,.12-.912s-.04-.642-.12-.918c-.079-.276-.193-.514-.342-.714-.147-.2-.326-.354-.534-.462-.208-.108-.436-.162-.684-.162s-.476,.054-.684,.162c-.208,.107-.387,.262-.534,.462-.148,.2-.263,.438-.342,.714-.08,.276-.12,.582-.12,.918s.04,.641,.12,.912c.079,.272,.193,.506,.342,.702,.147,.196,.326,.348,.534,.456,.208,.107,.436,.162,.684,.162Z"/>
        <path class="cls-7" d="M201.131,88.83v-5.832h.815l.084,1.056h.036c.2-.368,.442-.66,.727-.876,.283-.216,.594-.324,.93-.324,.231,0,.439,.04,.624,.12l-.192,.864c-.096-.032-.184-.056-.264-.072-.08-.016-.18-.023-.3-.023-.248,0-.507,.1-.774,.3s-.502,.548-.702,1.044v3.744h-.983Z"/>
        <path class="cls-7" d="M205.295,88.83v-8.544h.972v5.784h.036l2.483-3.072h1.093l-1.956,2.34,2.22,3.492h-1.08l-1.704-2.809-1.092,1.272v1.536h-.972Z"/>
        <path class="cls-4" d="M99.778,103.974c-.36,0-.702-.067-1.026-.203-.323-.137-.609-.334-.857-.595-.248-.26-.446-.58-.594-.96-.148-.38-.223-.81-.223-1.29,0-.487,.074-.922,.223-1.302,.147-.38,.346-.702,.594-.966,.248-.265,.534-.464,.857-.601,.324-.135,.666-.203,1.026-.203s.702,.068,1.026,.203c.323,.137,.609,.336,.857,.601,.248,.264,.446,.586,.595,.966,.147,.38,.222,.814,.222,1.302,0,.48-.074,.91-.222,1.29-.148,.38-.347,.7-.595,.96-.248,.261-.534,.458-.857,.595-.324,.136-.666,.203-1.026,.203Zm0-.815c.248,0,.476-.054,.684-.162s.387-.26,.534-.456c.148-.196,.263-.43,.342-.702,.08-.271,.12-.576,.12-.912s-.04-.642-.12-.918c-.079-.275-.193-.514-.342-.714-.147-.2-.326-.354-.534-.462s-.436-.162-.684-.162-.476,.054-.684,.162-.387,.262-.534,.462c-.148,.2-.263,.438-.342,.714-.08,.276-.12,.582-.12,.918s.04,.641,.12,.912c.079,.272,.193,.506,.342,.702,.147,.196,.326,.348,.534,.456s.436,.162,.684,.162Z"/>
        <path class="cls-4" d="M105.719,103.974c-.624,0-1.078-.191-1.362-.575-.284-.385-.426-.952-.426-1.704v-3.696h.996v3.564c0,.552,.085,.949,.258,1.193,.172,.244,.449,.366,.834,.366,.304,0,.571-.078,.804-.234,.232-.155,.488-.405,.768-.75v-4.14h.984v5.832h-.816l-.084-.912h-.035c-.272,.32-.559,.576-.858,.769-.3,.191-.654,.287-1.062,.287Z"/>
        <path class="cls-4" d="M112.379,103.974c-.312,0-.574-.048-.786-.144s-.384-.228-.517-.396c-.132-.168-.226-.371-.281-.611-.057-.24-.084-.504-.084-.792v-3.229h-.864v-.744l.912-.06,.12-1.632h.828v1.632h1.571v.804h-1.571v3.24c0,.36,.065,.638,.197,.834s.366,.294,.702,.294c.104,0,.216-.016,.336-.048s.229-.067,.324-.108l.192,.744c-.16,.057-.335,.106-.522,.15-.188,.044-.374,.065-.558,.065Z"/>
        <path class="cls-4" d="M116.122,103.974c-.416,0-.812-.075-1.188-.228s-.704-.344-.984-.576l.492-.66c.256,.208,.518,.376,.786,.504,.268,.129,.577,.192,.93,.192,.384,0,.672-.088,.864-.264,.191-.176,.288-.393,.288-.648,0-.151-.04-.284-.12-.396-.08-.112-.183-.21-.307-.294s-.266-.158-.426-.223c-.16-.063-.319-.128-.479-.191-.208-.072-.416-.154-.624-.246s-.395-.204-.559-.336-.298-.286-.401-.462c-.104-.177-.156-.389-.156-.637,0-.231,.046-.449,.138-.653,.092-.205,.225-.381,.396-.528s.382-.265,.63-.349c.248-.083,.528-.125,.84-.125,.368,0,.706,.063,1.014,.191,.309,.129,.574,.284,.799,.469l-.469,.623c-.2-.151-.407-.275-.624-.371-.216-.097-.452-.145-.708-.145-.368,0-.638,.084-.81,.252s-.258,.364-.258,.588c0,.137,.036,.254,.107,.354,.072,.1,.168,.188,.288,.264s.258,.144,.414,.204c.156,.06,.318,.122,.486,.186,.208,.08,.418,.164,.63,.252,.212,.089,.402,.198,.57,.33s.306,.294,.414,.486c.107,.192,.161,.424,.161,.696,0,.239-.046,.464-.138,.672s-.228,.392-.408,.552c-.18,.16-.403,.286-.672,.378-.268,.092-.574,.138-.918,.138Z"/>
        <path class="cls-4" d="M120.131,96.798c-.192,0-.354-.06-.486-.18s-.198-.271-.198-.456c0-.191,.066-.346,.198-.462s.294-.174,.486-.174c.191,0,.354,.058,.485,.174,.133,.116,.198,.271,.198,.462,0,.185-.065,.336-.198,.456-.132,.12-.294,.18-.485,.18Zm-.504,7.032v-5.832h.983v5.832h-.983Z"/>
        <path class="cls-4" d="M124.57,103.974c-.735,0-1.321-.264-1.758-.792-.436-.527-.653-1.279-.653-2.256,0-.472,.069-.897,.21-1.277,.14-.38,.325-.702,.558-.966,.231-.265,.5-.469,.804-.612s.624-.216,.96-.216,.628,.06,.876,.18,.5,.284,.756,.492l-.048-.996v-2.244h.996v8.544h-.815l-.084-.684h-.036c-.232,.224-.498,.418-.798,.582-.301,.163-.622,.245-.967,.245Zm.217-.827c.271,0,.527-.066,.768-.198s.48-.334,.72-.606v-3.048c-.248-.224-.485-.382-.714-.474-.228-.093-.462-.138-.702-.138-.231,0-.449,.053-.653,.161s-.383,.261-.534,.456c-.152,.196-.272,.431-.36,.702-.088,.272-.132,.576-.132,.912,0,.704,.14,1.252,.42,1.644,.28,.393,.676,.589,1.188,.589Z"/>
        <path class="cls-4" d="M131.603,103.974c-.392,0-.758-.069-1.098-.21-.34-.14-.636-.34-.888-.6s-.45-.578-.595-.954c-.144-.376-.216-.804-.216-1.284s.074-.909,.223-1.29c.147-.38,.344-.702,.588-.966,.243-.264,.521-.466,.834-.606,.312-.139,.636-.209,.972-.209,.368,0,.698,.063,.99,.191,.292,.129,.536,.312,.731,.553,.196,.239,.347,.527,.45,.863,.104,.336,.156,.712,.156,1.128,0,.104-.002,.206-.006,.307-.004,.1-.015,.186-.03,.258h-3.936c.039,.624,.233,1.118,.582,1.481,.348,.364,.802,.546,1.361,.546,.28,0,.538-.042,.774-.126,.235-.084,.462-.193,.678-.329l.348,.647c-.256,.16-.54,.3-.852,.42-.312,.12-.668,.18-1.068,.18Zm-1.836-3.527h3.12c0-.592-.126-1.042-.378-1.351-.252-.308-.605-.462-1.062-.462-.209,0-.406,.041-.595,.12-.188,.08-.357,.198-.51,.354-.152,.155-.278,.346-.378,.569-.1,.225-.166,.48-.198,.769Z"/>
        <path class="cls-4" d="M139.428,103.974c-.312,0-.574-.048-.786-.144s-.384-.228-.517-.396c-.132-.168-.226-.371-.281-.611-.057-.24-.084-.504-.084-.792v-3.229h-.864v-.744l.912-.06,.12-1.632h.828v1.632h1.571v.804h-1.571v3.24c0,.36,.065,.638,.197,.834s.366,.294,.702,.294c.104,0,.216-.016,.336-.048s.229-.067,.324-.108l.192,.744c-.16,.057-.335,.106-.522,.15-.188,.044-.374,.065-.558,.065Z"/>
        <path class="cls-4" d="M141.648,103.83v-8.544h.983v2.328l-.036,1.199c.28-.264,.572-.489,.876-.678,.305-.188,.66-.281,1.068-.281,.616,0,1.066,.191,1.35,.576,.284,.383,.427,.951,.427,1.703v3.696h-.984v-3.564c0-.552-.088-.949-.264-1.193-.177-.244-.456-.366-.84-.366-.305,0-.572,.076-.805,.228-.231,.152-.496,.377-.792,.673v4.224h-.983Z"/>
        <path class="cls-4" d="M150.539,103.974c-.392,0-.758-.069-1.098-.21-.34-.14-.636-.34-.888-.6s-.45-.578-.595-.954c-.144-.376-.216-.804-.216-1.284s.074-.909,.223-1.29c.147-.38,.344-.702,.588-.966,.243-.264,.521-.466,.834-.606,.312-.139,.636-.209,.972-.209,.368,0,.698,.063,.99,.191,.292,.129,.536,.312,.731,.553,.196,.239,.347,.527,.45,.863,.104,.336,.156,.712,.156,1.128,0,.104-.002,.206-.006,.307-.004,.1-.015,.186-.03,.258h-3.936c.039,.624,.233,1.118,.582,1.481,.348,.364,.802,.546,1.361,.546,.28,0,.538-.042,.774-.126,.235-.084,.462-.193,.678-.329l.348,.647c-.256,.16-.54,.3-.852,.42-.312,.12-.668,.18-1.068,.18Zm-1.836-3.527h3.12c0-.592-.126-1.042-.378-1.351-.252-.308-.605-.462-1.062-.462-.209,0-.406,.041-.595,.12-.188,.08-.357,.198-.51,.354-.152,.155-.278,.346-.378,.569-.1,.225-.166,.48-.198,.769Z"/>
        <path class="cls-4" d="M157.872,103.974c-.488,0-.895-.144-1.218-.432-.324-.288-.486-.696-.486-1.224,0-.641,.284-1.13,.852-1.471,.568-.34,1.477-.577,2.725-.714,0-.184-.019-.363-.054-.54-.036-.176-.099-.332-.187-.468s-.21-.246-.366-.33c-.155-.084-.354-.126-.594-.126-.336,0-.652,.064-.948,.192s-.56,.271-.792,.432l-.384-.684c.271-.176,.604-.346,.996-.51,.392-.164,.824-.246,1.296-.246,.712,0,1.228,.218,1.548,.654,.32,.436,.48,1.018,.48,1.745v3.576h-.816l-.084-.696h-.036c-.28,.232-.58,.431-.899,.595-.32,.163-.664,.245-1.032,.245Zm.288-.792c.279,0,.544-.065,.792-.197s.512-.326,.792-.582v-1.62c-.488,.064-.898,.14-1.23,.228-.332,.089-.6,.192-.804,.312s-.353,.258-.444,.414c-.092,.155-.138,.326-.138,.51,0,.336,.1,.576,.3,.72,.2,.145,.444,.216,.732,.216Z"/>
        <path class="cls-4" d="M162.576,103.83v-5.832h.815l.084,1.056h.036c.2-.367,.442-.66,.727-.875,.283-.217,.594-.324,.93-.324,.231,0,.439,.04,.624,.119l-.192,.864c-.096-.032-.184-.056-.264-.071-.08-.017-.18-.024-.3-.024-.248,0-.507,.1-.774,.3s-.502,.548-.702,1.044v3.744h-.983Z"/>
        <path class="cls-4" d="M168.576,103.974c-.312,0-.574-.048-.786-.144s-.384-.228-.517-.396c-.132-.168-.226-.371-.281-.611-.057-.24-.084-.504-.084-.792v-3.229h-.864v-.744l.912-.06,.12-1.632h.828v1.632h1.571v.804h-1.571v3.24c0,.36,.065,.638,.197,.834s.366,.294,.702,.294c.104,0,.216-.016,.336-.048s.229-.067,.324-.108l.192,.744c-.16,.057-.335,.106-.522,.15-.188,.044-.374,.065-.558,.065Z"/>
        <path class="cls-4" d="M173.376,103.974c-.272,0-.555-.065-.847-.197s-.565-.314-.821-.546h-.036l-.084,.6h-.792v-8.544h.983v2.328l-.023,1.056c.264-.231,.552-.426,.863-.582,.312-.155,.632-.233,.96-.233,.376,0,.708,.07,.996,.209,.288,.141,.53,.341,.727,.601,.195,.26,.344,.572,.443,.936,.101,.364,.15,.771,.15,1.219,0,.496-.068,.939-.204,1.332-.136,.392-.32,.724-.552,.996-.232,.271-.5,.478-.804,.617-.305,.141-.624,.21-.96,.21Zm-.168-.827c.239,0,.462-.055,.665-.162,.204-.108,.38-.26,.528-.456s.264-.438,.349-.727c.084-.288,.126-.611,.126-.972,0-.32-.028-.612-.084-.876-.057-.264-.146-.49-.271-.678-.124-.188-.284-.334-.479-.438-.196-.104-.431-.155-.702-.155-.473,0-.992,.264-1.561,.791v3.061c.256,.224,.51,.382,.763,.474,.252,.093,.474,.139,.666,.139Z"/>
        <path class="cls-4" d="M179.699,103.974c-.36,0-.702-.067-1.026-.203-.323-.137-.609-.334-.857-.595-.248-.26-.446-.58-.594-.96-.148-.38-.223-.81-.223-1.29,0-.487,.074-.922,.223-1.302,.147-.38,.346-.702,.594-.966,.248-.265,.534-.464,.857-.601,.324-.135,.666-.203,1.026-.203s.702,.068,1.026,.203c.323,.137,.609,.336,.857,.601,.248,.264,.446,.586,.595,.966,.147,.38,.222,.814,.222,1.302,0,.48-.074,.91-.222,1.29-.148,.38-.347,.7-.595,.96-.248,.261-.534,.458-.857,.595-.324,.136-.666,.203-1.026,.203Zm0-.815c.248,0,.476-.054,.684-.162s.387-.26,.534-.456c.148-.196,.263-.43,.342-.702,.08-.271,.12-.576,.12-.912s-.04-.642-.12-.918c-.079-.275-.193-.514-.342-.714-.147-.2-.326-.354-.534-.462s-.436-.162-.684-.162-.476,.054-.684,.162-.387,.262-.534,.462c-.148,.2-.263,.438-.342,.714-.08,.276-.12,.582-.12,.918s.04,.641,.12,.912c.079,.272,.193,.506,.342,.702,.147,.196,.326,.348,.534,.456s.436,.162,.684,.162Z"/>
        <path class="cls-4" d="M185.279,103.974c-.488,0-.895-.144-1.218-.432-.324-.288-.486-.696-.486-1.224,0-.641,.284-1.13,.852-1.471,.568-.34,1.477-.577,2.725-.714,0-.184-.019-.363-.054-.54-.036-.176-.099-.332-.187-.468s-.21-.246-.366-.33c-.155-.084-.354-.126-.594-.126-.336,0-.652,.064-.948,.192s-.56,.271-.792,.432l-.384-.684c.271-.176,.604-.346,.996-.51,.392-.164,.824-.246,1.296-.246,.712,0,1.228,.218,1.548,.654,.32,.436,.48,1.018,.48,1.745v3.576h-.816l-.084-.696h-.036c-.28,.232-.58,.431-.899,.595-.32,.163-.664,.245-1.032,.245Zm.288-.792c.279,0,.544-.065,.792-.197s.512-.326,.792-.582v-1.62c-.488,.064-.898,.14-1.23,.228-.332,.089-.6,.192-.804,.312s-.353,.258-.444,.414c-.092,.155-.138,.326-.138,.51,0,.336,.1,.576,.3,.72,.2,.145,.444,.216,.732,.216Z"/>
        <path class="cls-4" d="M189.984,103.83v-5.832h.815l.084,1.056h.036c.2-.367,.442-.66,.727-.875,.283-.217,.594-.324,.93-.324,.231,0,.439,.04,.624,.119l-.192,.864c-.096-.032-.184-.056-.264-.071-.08-.017-.18-.024-.3-.024-.248,0-.507,.1-.774,.3s-.502,.548-.702,1.044v3.744h-.983Z"/>
        <path class="cls-4" d="M196.139,103.974c-.735,0-1.321-.264-1.758-.792-.436-.527-.653-1.279-.653-2.256,0-.472,.069-.897,.21-1.277,.14-.38,.325-.702,.558-.966,.231-.265,.5-.469,.804-.612s.624-.216,.96-.216,.628,.06,.876,.18,.5,.284,.756,.492l-.048-.996v-2.244h.996v8.544h-.815l-.084-.684h-.036c-.232,.224-.498,.418-.798,.582-.301,.163-.622,.245-.967,.245Zm.217-.827c.271,0,.527-.066,.768-.198s.48-.334,.72-.606v-3.048c-.248-.224-.485-.382-.714-.474-.228-.093-.462-.138-.702-.138-.231,0-.449,.053-.653,.161s-.383,.261-.534,.456c-.152,.196-.272,.431-.36,.702-.088,.272-.132,.576-.132,.912,0,.704,.14,1.252,.42,1.644,.28,.393,.676,.589,1.188,.589Z"/>
      </g>
      <text class="cls-8" transform="translate(96.527 142.106)"><tspan class="cls-7" x="0" y="0">check for </tspan><tspan class="cls-4" x="48.337" y="0">common issues:</tspan><tspan class="cls-7" x="0" y="20">• </tspan><tspan class="cls-4" x="6.048" y="20">artboard</tspan><tspan class="cls-7" x="50.327" y="20" xml:space="preserve"> names &amp; sizes</tspan><tspan class="cls-7" x="0" y="35">• </tspan><tspan class="cls-4" x="6.048" y="35">images</tspan><tspan class="cls-7" x="42.024" y="35" xml:space="preserve"> not in the nearest</tspan><tspan class="cls-7"><tspan x="0" y="50">  &quot;Links&quot; folder</tspan></tspan><tspan class="cls-7" x="0" y="65">• </tspan><tspan class="cls-4" x="6.048" y="65">unsupported techniques</tspan><tspan class="cls-4" x="0" y="85">create a group</tspan><tspan class="cls-7" x="72.396" y="85" xml:space="preserve"> — useful if </tspan><tspan class="cls-7"><tspan x="0" y="100">only one object is selected</tspan></tspan><tspan class="cls-7" x="0" y="120">copy any </tspan><tspan class="cls-4" x="47.255" y="120">unlocked layers</tspan><tspan class="cls-7" x="126.189" y="120"> </tspan><tspan class="cls-7"><tspan x="0" y="135">to all other open files</tspan></tspan><tspan class="cls-7"><tspan x="0" y="155">import text styles from a</tspan></tspan><tspan class="cls-4"><tspan x="0" y="170">separate Illustrator file</tspan></tspan></text>
      <g>
        <path class="cls-4" d="M65.07,18.98c-.528,0-1.038-.101-1.53-.3-.492-.2-.926-.484-1.302-.853l.816-.948c.279,.265,.6,.479,.96,.643,.359,.164,.72,.246,1.079,.246,.448,0,.788-.092,1.021-.276,.231-.184,.348-.428,.348-.732,0-.159-.029-.296-.09-.407-.06-.112-.144-.21-.252-.294-.107-.084-.236-.162-.384-.234-.148-.072-.311-.144-.486-.216l-1.08-.468c-.191-.08-.382-.181-.569-.301-.188-.12-.358-.264-.511-.432-.151-.168-.273-.364-.365-.588-.093-.224-.139-.48-.139-.769,0-.312,.066-.602,.198-.869,.132-.269,.313-.502,.546-.702s.51-.356,.834-.469c.324-.111,.678-.168,1.062-.168,.456,0,.896,.091,1.319,.271s.788,.422,1.093,.726l-.708,.889c-.257-.208-.521-.372-.792-.492-.272-.12-.576-.18-.912-.18-.376,0-.677,.082-.9,.245-.224,.164-.336,.391-.336,.679,0,.151,.034,.281,.102,.39,.068,.108,.16,.204,.276,.288s.25,.16,.402,.228c.151,.068,.308,.135,.468,.198l1.068,.444c.231,.096,.443,.208,.636,.336,.191,.128,.357,.276,.498,.444,.14,.168,.25,.361,.33,.582,.08,.22,.12,.474,.12,.762,0,.32-.064,.62-.192,.899-.128,.28-.314,.526-.558,.738-.244,.212-.54,.38-.889,.504-.348,.124-.742,.187-1.182,.187Z"/>
        <path class="cls-4" d="M70.626,18.98c-.52,0-.939-.158-1.26-.475-.32-.315-.479-.733-.479-1.254,0-.312,.065-.59,.197-.834s.34-.454,.624-.63,.645-.324,1.08-.444c.437-.119,.958-.212,1.566-.275-.008-.152-.03-.298-.066-.438-.036-.14-.096-.264-.18-.372-.084-.107-.194-.191-.33-.252-.136-.06-.304-.09-.504-.09-.288,0-.57,.057-.846,.168-.276,.112-.547,.248-.811,.408l-.504-.924c.328-.208,.696-.388,1.104-.54,.407-.152,.848-.229,1.319-.229,.736,0,1.286,.219,1.65,.654,.363,.437,.546,1.066,.546,1.89v3.492h-1.14l-.097-.647h-.048c-.264,.224-.546,.412-.846,.563-.3,.152-.626,.229-.979,.229Zm.444-1.08c.24,0,.458-.056,.654-.168,.195-.112,.405-.272,.63-.48v-1.319c-.4,.048-.736,.111-1.008,.191-.272,.08-.492,.17-.66,.271-.168,.1-.288,.214-.36,.342s-.107,.264-.107,.408c0,.264,.079,.456,.239,.575,.16,.12,.364,.181,.612,.181Z"/>
        <path class="cls-4" d="M76.71,18.835l-2.053-5.892h1.404l.937,3.06c.079,.288,.162,.58,.246,.876s.165,.597,.245,.9h.049c.088-.304,.172-.604,.252-.9,.079-.296,.163-.588,.252-.876l.936-3.06h1.332l-2.004,5.892h-1.596Z"/>
        <path class="cls-4" d="M83.851,18.98c-.408,0-.788-.07-1.141-.21-.352-.141-.66-.343-.924-.606s-.47-.586-.618-.966-.222-.814-.222-1.302c0-.48,.076-.912,.228-1.296,.152-.385,.354-.708,.606-.973,.252-.264,.542-.468,.87-.611,.328-.145,.664-.217,1.008-.217,.399,0,.752,.068,1.056,.204,.304,.137,.559,.328,.763,.576,.203,.248,.357,.544,.462,.888,.104,.345,.155,.721,.155,1.128,0,.137-.006,.265-.018,.385s-.026,.216-.042,.288h-3.744c.064,.527,.25,.934,.558,1.218,.309,.284,.702,.426,1.183,.426,.256,0,.494-.038,.714-.114,.22-.075,.438-.182,.654-.317l.468,.863c-.28,.185-.592,.337-.937,.456-.344,.12-.704,.181-1.079,.181Zm-1.572-3.648h2.616c0-.456-.099-.813-.294-1.074-.196-.26-.498-.39-.906-.39-.353,0-.66,.124-.924,.372-.265,.248-.429,.612-.492,1.092Z"/>
        <path class="cls-4" d="M49.471,68.98c-.528,0-1.038-.101-1.53-.3-.492-.2-.926-.484-1.302-.853l.816-.948c.279,.265,.6,.479,.96,.643,.359,.164,.72,.246,1.079,.246,.448,0,.788-.092,1.021-.276,.231-.184,.348-.428,.348-.732,0-.159-.029-.296-.09-.407-.06-.112-.144-.21-.252-.294-.107-.084-.236-.162-.384-.234-.148-.072-.311-.144-.486-.216l-1.08-.468c-.191-.08-.382-.181-.569-.301-.188-.12-.358-.264-.511-.432-.151-.168-.273-.364-.365-.588-.093-.224-.139-.48-.139-.769,0-.312,.066-.602,.198-.869,.132-.269,.313-.502,.546-.702s.51-.356,.834-.469c.324-.111,.678-.168,1.062-.168,.456,0,.896,.091,1.319,.271s.788,.422,1.093,.726l-.708,.889c-.257-.208-.521-.372-.792-.492-.272-.12-.576-.18-.912-.18-.376,0-.677,.082-.9,.245-.224,.164-.336,.391-.336,.679,0,.151,.034,.281,.102,.39,.068,.108,.16,.204,.276,.288s.25,.16,.402,.228c.151,.068,.308,.135,.468,.198l1.068,.444c.231,.096,.443,.208,.636,.336,.191,.128,.357,.276,.498,.444,.14,.168,.25,.361,.33,.582,.08,.22,.12,.474,.12,.762,0,.32-.064,.62-.192,.899-.128,.28-.314,.526-.558,.738-.244,.212-.54,.38-.889,.504-.348,.124-.742,.187-1.182,.187Z"/>
        <path class="cls-4" d="M55.026,68.98c-.52,0-.939-.158-1.26-.475-.32-.315-.479-.733-.479-1.254,0-.312,.065-.59,.197-.834s.34-.454,.624-.63,.645-.324,1.08-.444c.437-.119,.958-.212,1.566-.275-.008-.152-.03-.298-.066-.438-.036-.14-.096-.264-.18-.372-.084-.107-.194-.191-.33-.252-.136-.06-.304-.09-.504-.09-.288,0-.57,.057-.846,.168-.276,.112-.547,.248-.811,.408l-.504-.924c.328-.208,.696-.388,1.104-.54,.407-.152,.848-.229,1.319-.229,.736,0,1.286,.219,1.65,.654,.363,.437,.546,1.066,.546,1.89v3.492h-1.14l-.097-.647h-.048c-.264,.224-.546,.412-.846,.563-.3,.152-.626,.229-.979,.229Zm.444-1.08c.24,0,.458-.056,.654-.168,.195-.112,.405-.272,.63-.48v-1.319c-.4,.048-.736,.111-1.008,.191-.272,.08-.492,.17-.66,.271-.168,.1-.288,.214-.36,.342s-.107,.264-.107,.408c0,.264,.079,.456,.239,.575,.16,.12,.364,.181,.612,.181Z"/>
        <path class="cls-4" d="M61.11,68.835l-2.053-5.892h1.404l.937,3.06c.079,.288,.162,.58,.246,.876s.165,.597,.245,.9h.049c.088-.304,.172-.604,.252-.9,.079-.296,.163-.588,.252-.876l.936-3.06h1.332l-2.004,5.892h-1.596Z"/>
        <path class="cls-4" d="M68.251,68.98c-.408,0-.788-.07-1.141-.21-.352-.141-.66-.343-.924-.606s-.47-.586-.618-.966-.222-.814-.222-1.302c0-.48,.076-.912,.228-1.296,.152-.385,.354-.708,.606-.973,.252-.264,.542-.468,.87-.611,.328-.145,.664-.217,1.008-.217,.399,0,.752,.068,1.056,.204,.304,.137,.559,.328,.763,.576,.203,.248,.357,.544,.462,.888,.104,.345,.155,.721,.155,1.128,0,.137-.006,.265-.018,.385s-.026,.216-.042,.288h-3.744c.064,.527,.25,.934,.558,1.218,.309,.284,.702,.426,1.183,.426,.256,0,.494-.038,.714-.114,.22-.075,.438-.182,.654-.317l.468,.863c-.28,.185-.592,.337-.937,.456-.344,.12-.704,.181-1.079,.181Zm-1.572-3.648h2.616c0-.456-.099-.813-.294-1.074-.196-.26-.498-.39-.906-.39-.353,0-.66,.124-.924,.372-.265,.248-.429,.612-.492,1.092Z"/>
        <path class="cls-4" d="M73.314,68.835l2.557-7.848h1.632l2.556,7.848h-1.464l-.612-2.124h-2.64l-.612,2.124h-1.416Zm2.628-4.176l-.275,.96h2.004l-.276-.96c-.128-.416-.25-.844-.365-1.284-.116-.439-.23-.876-.343-1.308h-.048c-.112,.439-.224,.878-.336,1.313-.112,.437-.232,.862-.36,1.278Z"/>
        <path class="cls-4" d="M82.254,68.98c-.496,0-.844-.148-1.044-.444s-.3-.7-.3-1.212v-6.96h1.38v7.032c0,.168,.032,.286,.096,.354,.064,.068,.133,.103,.204,.103h.091c.027,0,.069-.008,.126-.024l.18,1.032c-.185,.08-.428,.12-.732,.12Z"/>
        <path class="cls-4" d="M85.506,68.98c-.496,0-.844-.148-1.044-.444s-.3-.7-.3-1.212v-6.96h1.38v7.032c0,.168,.032,.286,.096,.354,.064,.068,.133,.103,.204,.103h.091c.027,0,.069-.008,.126-.024l.18,1.032c-.185,.08-.428,.12-.732,.12Z"/>
        <path class="cls-4" d="M12.44,88.98c-.528,0-1.038-.101-1.53-.3-.492-.2-.926-.484-1.302-.853l.816-.948c.279,.265,.6,.479,.96,.643,.359,.164,.72,.246,1.079,.246,.448,0,.788-.092,1.021-.276,.231-.184,.348-.428,.348-.732,0-.159-.029-.296-.09-.407-.06-.112-.144-.21-.252-.294-.107-.084-.236-.162-.384-.234-.148-.072-.311-.144-.486-.216l-1.08-.468c-.191-.08-.382-.181-.569-.301-.188-.12-.358-.264-.511-.432-.151-.168-.273-.364-.365-.588-.093-.224-.139-.48-.139-.769,0-.312,.066-.602,.198-.869,.132-.269,.313-.502,.546-.702s.51-.356,.834-.469c.324-.111,.678-.168,1.062-.168,.456,0,.896,.091,1.319,.271s.788,.422,1.093,.726l-.708,.889c-.257-.208-.521-.372-.792-.492-.272-.12-.576-.18-.912-.18-.376,0-.677,.082-.9,.245-.224,.164-.336,.391-.336,.679,0,.151,.034,.281,.102,.39,.068,.108,.16,.204,.276,.288s.25,.16,.402,.228c.151,.068,.308,.135,.468,.198l1.068,.444c.231,.096,.443,.208,.636,.336,.191,.128,.357,.276,.498,.444,.14,.168,.25,.361,.33,.582,.08,.22,.12,.474,.12,.762,0,.32-.064,.62-.192,.899-.128,.28-.314,.526-.558,.738-.244,.212-.54,.38-.889,.504-.348,.124-.742,.187-1.182,.187Z"/>
        <path class="cls-4" d="M17.995,88.98c-.52,0-.939-.158-1.26-.475-.32-.315-.479-.733-.479-1.254,0-.312,.065-.59,.197-.834s.34-.454,.624-.63,.645-.324,1.08-.444c.437-.119,.958-.212,1.566-.275-.008-.152-.03-.298-.066-.438-.036-.14-.096-.264-.18-.372-.084-.107-.194-.191-.33-.252-.136-.06-.304-.09-.504-.09-.288,0-.57,.057-.846,.168-.276,.112-.547,.248-.811,.408l-.504-.924c.328-.208,.696-.388,1.104-.54,.407-.152,.848-.229,1.319-.229,.736,0,1.286,.219,1.65,.654,.363,.437,.546,1.066,.546,1.89v3.492h-1.14l-.097-.647h-.048c-.264,.224-.546,.412-.846,.563-.3,.152-.626,.229-.979,.229Zm.444-1.08c.24,0,.458-.056,.654-.168,.195-.112,.405-.272,.63-.48v-1.319c-.4,.048-.736,.111-1.008,.191-.272,.08-.492,.17-.66,.271-.168,.1-.288,.214-.36,.342s-.107,.264-.107,.408c0,.264,.079,.456,.239,.575,.16,.12,.364,.181,.612,.181Z"/>
        <path class="cls-4" d="M24.079,88.835l-2.053-5.892h1.404l.937,3.06c.079,.288,.162,.58,.246,.876s.165,.597,.245,.9h.049c.088-.304,.172-.604,.252-.9,.079-.296,.163-.588,.252-.876l.936-3.06h1.332l-2.004,5.892h-1.596Z"/>
        <path class="cls-4" d="M31.22,88.98c-.408,0-.788-.07-1.141-.21-.352-.141-.66-.343-.924-.606s-.47-.586-.618-.966-.222-.814-.222-1.302c0-.48,.076-.912,.228-1.296,.152-.385,.354-.708,.606-.973,.252-.264,.542-.468,.87-.611,.328-.145,.664-.217,1.008-.217,.399,0,.752,.068,1.056,.204,.304,.137,.559,.328,.763,.576,.203,.248,.357,.544,.462,.888,.104,.345,.155,.721,.155,1.128,0,.137-.006,.265-.018,.385s-.026,.216-.042,.288h-3.744c.064,.527,.25,.934,.558,1.218,.309,.284,.702,.426,1.183,.426,.256,0,.494-.038,.714-.114,.22-.075,.438-.182,.654-.317l.468,.863c-.28,.185-.592,.337-.937,.456-.344,.12-.704,.181-1.079,.181Zm-1.572-3.648h2.616c0-.456-.099-.813-.294-1.074-.196-.26-.498-.39-.906-.39-.353,0-.66,.124-.924,.372-.265,.248-.429,.612-.492,1.092Z"/>
        <path class="cls-4" d="M38.154,88.835l-1.56-5.892h1.392l.708,3.06c.064,.28,.118,.561,.162,.84,.044,.28,.094,.564,.15,.853h.048c.056-.288,.114-.572,.174-.853,.061-.279,.126-.56,.198-.84l.768-3.06h1.261l.779,3.06c.072,.28,.141,.561,.204,.84,.064,.28,.128,.564,.192,.853h.048c.056-.288,.108-.572,.156-.853,.048-.279,.1-.56,.155-.84l.708-3.06h1.297l-1.5,5.892h-1.645l-.684-2.748c-.064-.279-.124-.558-.181-.834-.056-.275-.116-.569-.18-.882h-.048c-.057,.312-.112,.608-.168,.888-.057,.28-.116,.561-.181,.841l-.672,2.735h-1.584Z"/>
        <path class="cls-4" d="M45.427,90.755l2.797-10.439h.936l-2.796,10.439h-.937Z"/>
        <path class="cls-4" d="M53.539,88.98c-.496,0-.96-.089-1.392-.265-.433-.176-.807-.436-1.122-.779-.316-.344-.566-.769-.75-1.272-.185-.504-.276-1.08-.276-1.728,0-.641,.094-1.214,.282-1.723,.188-.508,.444-.938,.768-1.29,.324-.352,.704-.619,1.141-.804,.436-.184,.901-.276,1.397-.276s.937,.101,1.32,.301,.7,.432,.948,.695l-.744,.9c-.208-.208-.433-.374-.672-.498-.24-.124-.513-.186-.816-.186-.32,0-.614,.065-.882,.197-.269,.132-.5,.32-.696,.564s-.348,.542-.456,.894c-.107,.353-.162,.748-.162,1.188,0,.896,.194,1.598,.582,2.105,.389,.509,.914,.763,1.578,.763,.353,0,.664-.074,.937-.223,.271-.147,.52-.342,.744-.582l.743,.876c-.319,.368-.686,.65-1.098,.847-.412,.195-.87,.294-1.374,.294Z"/>
        <path class="cls-4" d="M58.626,88.98c-.52,0-.939-.158-1.26-.475-.32-.315-.479-.733-.479-1.254,0-.312,.065-.59,.197-.834s.34-.454,.624-.63,.645-.324,1.08-.444c.437-.119,.958-.212,1.566-.275-.008-.152-.03-.298-.066-.438-.036-.14-.096-.264-.18-.372-.084-.107-.194-.191-.33-.252-.136-.06-.304-.09-.504-.09-.288,0-.57,.057-.846,.168-.276,.112-.547,.248-.811,.408l-.504-.924c.328-.208,.696-.388,1.104-.54,.407-.152,.848-.229,1.319-.229,.736,0,1.286,.219,1.65,.654,.363,.437,.546,1.066,.546,1.89v3.492h-1.14l-.097-.647h-.048c-.264,.224-.546,.412-.846,.563-.3,.152-.626,.229-.979,.229Zm.444-1.08c.24,0,.458-.056,.654-.168,.195-.112,.405-.272,.63-.48v-1.319c-.4,.048-.736,.111-1.008,.191-.272,.08-.492,.17-.66,.271-.168,.1-.288,.214-.36,.342s-.107,.264-.107,.408c0,.264,.079,.456,.239,.575,.16,.12,.364,.181,.612,.181Z"/>
        <path class="cls-4" d="M63.391,88.835v-5.892h1.14l.097,.792h.048c.264-.256,.55-.476,.857-.66,.309-.184,.666-.276,1.074-.276,.632,0,1.092,.202,1.38,.606s.433,.982,.433,1.734v3.695h-1.38v-3.516c0-.488-.072-.832-.217-1.032-.144-.2-.38-.3-.708-.3-.256,0-.481,.062-.678,.186s-.418,.307-.666,.546v4.116h-1.38Z"/>
        <path class="cls-4" d="M71.431,88.835l-2.053-5.892h1.404l.937,3.06c.079,.288,.162,.58,.246,.876s.165,.597,.245,.9h.049c.088-.304,.172-.604,.252-.9,.079-.296,.163-.588,.252-.876l.936-3.06h1.332l-2.004,5.892h-1.596Z"/>
        <path class="cls-4" d="M77.479,88.98c-.52,0-.939-.158-1.26-.475-.32-.315-.479-.733-.479-1.254,0-.312,.065-.59,.197-.834s.34-.454,.624-.63,.645-.324,1.08-.444c.437-.119,.958-.212,1.566-.275-.008-.152-.03-.298-.066-.438-.036-.14-.096-.264-.18-.372-.084-.107-.194-.191-.33-.252-.136-.06-.304-.09-.504-.09-.288,0-.57,.057-.846,.168-.276,.112-.547,.248-.811,.408l-.504-.924c.328-.208,.696-.388,1.104-.54,.407-.152,.848-.229,1.319-.229,.736,0,1.286,.219,1.65,.654,.363,.437,.546,1.066,.546,1.89v3.492h-1.14l-.097-.647h-.048c-.264,.224-.546,.412-.846,.563-.3,.152-.626,.229-.979,.229Zm.444-1.08c.24,0,.458-.056,.654-.168,.195-.112,.405-.272,.63-.48v-1.319c-.4,.048-.736,.111-1.008,.191-.272,.08-.492,.17-.66,.271-.168,.1-.288,.214-.36,.342s-.107,.264-.107,.408c0,.264,.079,.456,.239,.575,.16,.12,.364,.181,.612,.181Z"/>
        <path class="cls-4" d="M83.886,88.98c-.407,0-.81-.078-1.205-.234-.396-.156-.738-.35-1.026-.582l.647-.888c.265,.208,.526,.37,.786,.485,.26,.116,.542,.175,.847,.175,.319,0,.556-.066,.708-.198,.151-.132,.228-.302,.228-.51,0-.12-.036-.227-.107-.318-.072-.092-.169-.174-.288-.246-.12-.072-.257-.138-.408-.198-.152-.06-.305-.121-.456-.186-.192-.072-.389-.156-.588-.252-.2-.096-.378-.212-.534-.348-.156-.137-.284-.295-.384-.475-.101-.18-.15-.394-.15-.642,0-.521,.192-.944,.576-1.272s.908-.492,1.572-.492c.407,0,.775,.072,1.104,.217,.328,.144,.612,.308,.853,.491l-.637,.841c-.208-.152-.418-.274-.63-.366s-.434-.139-.666-.139c-.296,0-.514,.062-.653,.187-.141,.124-.21,.278-.21,.462,0,.12,.033,.222,.102,.306,.067,.084,.158,.158,.27,.223,.112,.063,.242,.124,.391,.18,.147,.056,.302,.112,.462,.168,.2,.072,.399,.154,.6,.246s.382,.206,.546,.342c.164,.137,.296,.302,.396,.498,.1,.196,.149,.431,.149,.702,0,.256-.05,.494-.149,.714-.101,.22-.246,.412-.438,.576-.191,.164-.432,.294-.72,.39-.288,.097-.616,.145-.984,.145Z"/>
      </g>
      <text class="cls-5" transform="translate(8.804 142.433)"><tspan x="0" y="0">Check &amp; Repair</tspan><tspan x="77.734" y="20"></tspan><tspan x="77.734" y="35"></tspan><tspan x="77.734" y="50"></tspan><tspan x="9.216" y="85">Create Group</tspan><tspan x="17.207" y="120">Dup. Layers</tspan><tspan x="8.352" y="155">Import Styles</tspan></text>
    </g>
  </g>
  <g id="ai_links_" data-name="ai links »">
    <g id="history.back_" data-name="history.back();">
      <a xlink:href="javascript:openLink(&apos;more.html&apos;);">
        <rect class="cls-9" x="0" y="0" width="240" height="339"/>
      </a>
    </g>
  </g>
</svg>