<?xml version="1.0" encoding="utf-8"?>
<!-- Generator: Adobe Illustrator 27.3.1, SVG Export Plug-In . SVG Version: 6.00 Build 0)  -->
<svg version="1.1" xmlns="http://www.w3.org/2000/svg" xmlns:xlink="http://www.w3.org/1999/xlink" x="0px" y="0px"
	 viewBox="0 0 240 160" style="enable-background:new 0 0 240 160;" xml:space="preserve">
<style type="text/css">
	.st0{fill:#323232;}
	.st1{fill:#535353;}
	.st2{fill:#B9B9B9;}
	.st3{fill:#F0F0F0;}
	.st4{fill:#181818;}
	.st5{fill:#787878;}
	.st6{fill:#B4B4B4;}
	.st7{fill:#252525;}
	.st8{fill:#464646;}
	.st9{fill:#AAAAAA;}
	.st10{fill:#DCDCDC;}
	.st11{fill:#828282;}
	.st12{fill:#8C8C8C;}
	.st13{fill:#5A5A5A;}
	.st14{font-family:'SourceSansPro-SemiBold';}
	.st15{font-size:8.5px;}
	.st16{font-size:12px;}
	.st17{fill:none;}
	.st18{font-family:'SourceSansPro-Regular';}
	.st19{fill:#CCFF00;}
	.st20{fill:#FF0088;}
	.st21{fill:#FF6699;}
	.st22{fill:#3C3C3C;}
	.st23{fill:#646464;}
	.st24{fill:#969696;}
	.st25{fill:#C8C8C8;}
	.st26{fill:#505050;}
	.st27{fill:#E6E6E6;}
	.st28{fill:#2D8CEB;}
	.st29{opacity:0;}
</style>
<g id="content__xBB_">
	<g id="background">
		<rect class="st3" width="240" height="160"/>
	</g>
	<g id="bottom_bar_stroke">
		<g>
			<rect y="147" class="st6" width="240" height="1"/>
		</g>
	</g>
	<g id="logo_bar_x2C__bar__x26__bottom_bar">
		<g>
			<rect x="0" y="148" transform="matrix(-1 -4.493662e-11 4.493662e-11 -1 240 308)" class="st10" width="240" height="12"/>
		</g>
	</g>
	<g id="bottom_bar_text">
		<g>
			<text transform="matrix(1 0 0 1 24.2852 156.9133)" class="st13 st14 st15">R E T U R N</text>
		</g>
		<path class="st13" d="M10.041,154l2.692-2.691l0.51,0.51L11.061,154l2.183,2.182l-0.51,0.51L10.041,154z M17.274,156.692
			l0.51-0.51L15.602,154l2.182-2.182l-0.51-0.51L14.582,154L17.274,156.692z"/>
	</g>
	<g id="left_help">
		<g>
			<text transform="matrix(1 0 0 1 19.2357 18.8193)"><tspan x="0" y="0" class="st13 st14 st16">Save as Svija </tspan><tspan x="62.303" y="15" class="st13 st14 st16"> </tspan><tspan x="-12.492" y="50" class="st13 st14 st16">Check &amp; Repair</tspan></text>
		</g>
	</g>
	<g id="logo__x26__right_help">
		<g>
			<rect x="91.527" y="8.76" class="st17" width="142.652" height="148.464"/>
			<text transform="matrix(1 0 0 1 91.5266 18.7198)"><tspan x="0" y="0" class="st5 st18 st16">save the </tspan><tspan x="43.969" y="0" class="st13 st18 st16">Illustrator file </tspan><tspan x="0" y="15" class="st5 st18 st16">as well as an </tspan><tspan x="65.054" y="15" class="st13 st18 st16">SVG version</tspan><tspan x="124.214" y="15" class="st5 st18 st16">  </tspan><tspan x="0" y="30" class="st5 st18 st16">in sync/Svija/</tspan><tspan x="66.96" y="30" class="st13 st18 st16">SVG Files</tspan><tspan x="0" y="50" class="st5 st18 st16">check for </tspan><tspan x="48.337" y="50" class="st13 st18 st16">common issues:</tspan><tspan x="0" y="70" class="st5 st18 st16">• </tspan><tspan x="6.048" y="70" class="st13 st18 st16">artboard</tspan><tspan x="50.327" y="70" class="st5 st18 st16"> names &amp; sizes </tspan><tspan x="0" y="85" class="st5 st18 st16">•</tspan><tspan x="3.647" y="85" class="st13 st18 st16"> images</tspan><tspan x="42.024" y="85" class="st5 st18 st16"> not in the nearest </tspan><tspan x="0" y="100" class="st5 st18 st16">  &quot;Links&quot; folder </tspan><tspan x="0" y="115" class="st5 st18 st16">• </tspan><tspan x="6.048" y="115" class="st13 st18 st16">unsupported techniques</tspan></text>
		</g>
	</g>
</g>
<g id="buttons__xBB_">
	<g id="bottom_stroke">
	</g>
	<g id="bottom_fill">
	</g>
	<g id="bottom_label">
	</g>
	<g id="top_stroke">
	</g>
	<g id="top_fill">
	</g>
	<g id="top_label">
	</g>
</g>
<g id="mouseover__xBB_">
	<g id="mouseover_3">
	</g>
	<g id="mouseover_2">
	</g>
	<g id="mouseover_1">
	</g>
	<g id="mouseover_0">
	</g>
</g>
<g id="mousedowns__xBB_">
	<g id="mousedown_3">
	</g>
	<g id="mousedown_2">
	</g>
	<g id="mousedown_1">
	</g>
	<g id="mousedown_0">
	</g>
</g>
<g id="ai_links__xBB_">
	<g id="history.back_x28__x29__x3B_">
		<a xlink:href="javascript:openLink(&apos;less.html&apos;);" >
			<rect x="0" y="0" class="st29" width="240" height="160"/>
		</a>
	</g>
	<g id="bottom_bar">
	</g>
</g>
<g id="listener_links__xBB_">
	<g id="links3">
	</g>
	<g id="links2">
	</g>
	<g id="links1">
	</g>
	<g id="links0">
	</g>
</g>
</svg>
